<svg width="188" height="105" viewBox="0 0 188 105" fill="none" xmlns="http://www.w3.org/2000/svg">
<path d="M186.274 87.0118C185.492 86.5505 184.679 86.1996 183.837 85.9589C182.995 85.6982 182.233 85.5679 181.551 85.5679C180.909 85.5679 180.388 85.6882 179.987 85.9288C179.585 86.1494 179.385 86.5305 179.385 87.072C179.385 87.5332 179.585 87.9042 179.987 88.185C180.408 88.4658 180.939 88.7064 181.581 88.907C182.223 89.0875 182.905 89.288 183.626 89.5086C184.348 89.7292 185.03 90.02 185.672 90.381C186.334 90.742 186.865 91.2233 187.266 91.8249C187.688 92.4266 187.898 93.2187 187.898 94.2014C187.898 95.2844 187.607 96.1868 187.026 96.9088C186.444 97.6107 185.672 98.1421 184.709 98.5031C183.747 98.8441 182.694 99.0145 181.551 99.0145C180.348 99.0145 179.144 98.824 177.941 98.443C176.758 98.0619 175.745 97.5004 174.903 96.7584L176.256 94.1412C176.998 94.783 177.871 95.2843 178.874 95.6453C179.896 95.9863 180.839 96.1567 181.701 96.1567C182.162 96.1567 182.574 96.0966 182.935 95.9762C183.296 95.8559 183.576 95.6854 183.777 95.4648C183.977 95.2242 184.078 94.9133 184.078 94.5323C184.078 94.0109 183.877 93.6098 183.476 93.329C183.075 93.0282 182.554 92.7775 181.912 92.577C181.29 92.3564 180.618 92.1458 179.896 91.9452C179.174 91.7246 178.492 91.4439 177.851 91.1029C177.229 90.742 176.718 90.2707 176.317 89.6891C175.915 89.1075 175.715 88.3354 175.715 87.3728C175.715 86.2898 175.996 85.3974 176.557 84.6955C177.119 83.9936 177.861 83.4822 178.783 83.1613C179.706 82.8204 180.709 82.6499 181.791 82.6499C182.834 82.6499 183.877 82.8003 184.92 83.1011C185.963 83.3819 186.885 83.783 187.688 84.3044L186.274 87.0118Z" fill="black"/>
<path d="M160.426 91.7647C160.426 92.9279 160.727 93.8504 161.328 94.5322C161.95 95.194 162.802 95.5249 163.885 95.5249C165.149 95.4848 166.131 95.0135 166.833 94.1111C167.555 93.2086 167.916 92.0755 167.916 90.7118H168.939C168.939 92.6571 168.668 94.2414 168.127 95.4648C167.585 96.6681 166.823 97.5605 165.84 98.1421C164.858 98.7036 163.685 98.9944 162.321 99.0145C161.118 99.0145 160.075 98.7638 159.192 98.2624C158.33 97.761 157.658 97.0491 157.177 96.1266C156.716 95.184 156.485 94.081 156.485 92.8176V82.8303H160.426V91.7647ZM167.916 82.8303H171.857V98.864H167.916V82.8303Z" fill="black"/>
<path d="M145.996 82.6799C147.521 82.6799 148.854 83.0209 149.997 83.7027C151.14 84.3846 152.023 85.3472 152.645 86.5906C153.286 87.8139 153.607 89.2478 153.607 90.8923C153.607 92.4967 153.296 93.9106 152.675 95.1339C152.053 96.3372 151.171 97.2898 150.027 97.9917C148.904 98.6735 147.581 99.0145 146.057 99.0145C144.633 99.0145 143.409 98.6936 142.387 98.0518C141.364 97.39 140.582 96.4475 140.04 95.2241C139.499 94.0008 139.228 92.5569 139.228 90.8923C139.228 89.1676 139.489 87.6936 140.01 86.4703C140.552 85.2469 141.334 84.3144 142.357 83.6726C143.379 83.0108 144.593 82.6799 145.996 82.6799ZM145.124 85.7784C144.242 85.7784 143.449 85.999 142.748 86.4402C142.066 86.8613 141.534 87.4529 141.153 88.215C140.772 88.957 140.582 89.8194 140.582 90.8021C140.582 91.7848 140.772 92.6571 141.153 93.4192C141.534 94.1813 142.066 94.7729 142.748 95.194C143.449 95.6152 144.242 95.8258 145.124 95.8258C146.027 95.8258 146.809 95.6152 147.47 95.194C148.152 94.7528 148.684 94.1612 149.065 93.4192C149.446 92.6571 149.636 91.7848 149.636 90.8021C149.636 89.8194 149.446 88.957 149.065 88.215C148.684 87.4529 148.152 86.8613 147.47 86.4402C146.809 85.999 146.027 85.7784 145.124 85.7784ZM136.671 82.8303H140.582V104.7H136.671V82.8303Z" fill="black"/>
<path d="M116.696 89.8996C116.696 88.7164 116.385 87.7939 115.764 87.1321C115.162 86.4703 114.31 86.1394 113.207 86.1394C111.943 86.1594 110.94 86.6307 110.198 87.5532C109.476 88.4557 109.115 89.5888 109.115 90.9525H108.063C108.063 89.0072 108.333 87.4329 108.875 86.2296C109.416 85.0063 110.188 84.1138 111.191 83.5523C112.214 82.9707 113.407 82.6799 114.771 82.6799C115.994 82.6799 117.037 82.9306 117.899 83.432C118.782 83.9333 119.454 84.6453 119.915 85.5678C120.396 86.4703 120.637 87.5632 120.637 88.8467V98.8641H116.696V89.8996ZM128.218 89.8996C128.218 88.7164 127.907 87.7939 127.285 87.1321C126.663 86.4703 125.801 86.1394 124.698 86.1394C123.435 86.1594 122.442 86.6307 121.72 87.5532C120.998 88.4557 120.637 89.5888 120.637 90.9525H119.584C119.584 89.0072 119.855 87.4329 120.396 86.2296C120.938 85.0063 121.71 84.1138 122.713 83.5523C123.715 82.9707 124.909 82.6799 126.292 82.6799C127.496 82.6799 128.528 82.9306 129.391 83.432C130.273 83.9333 130.955 84.6453 131.436 85.5678C131.918 86.4703 132.158 87.5632 132.158 88.8467V98.8641H128.218V89.8996ZM105.205 82.8303H109.115V98.8641H105.205V82.8303Z" fill="black"/>
<path d="M92.8758 91.7948C91.853 91.7948 91.091 91.9552 90.5896 92.2761C90.0882 92.597 89.8375 93.1284 89.8375 93.8704C89.8375 94.5523 90.0882 95.1038 90.5896 95.525C91.111 95.9461 91.8129 96.1567 92.6953 96.1567C93.4775 96.1567 94.1794 96.0263 94.8011 95.7656C95.4428 95.4848 95.9442 95.1138 96.3052 94.6526C96.6862 94.1713 96.9068 93.6398 96.967 93.0582L97.6288 95.8559C97.1475 96.8987 96.4054 97.6909 95.4027 98.2323C94.4 98.7738 93.1867 99.0445 91.7628 99.0445C90.6197 99.0445 89.627 98.8239 88.7847 98.3827C87.9424 97.9415 87.2906 97.3499 86.8293 96.6079C86.3681 95.8458 86.1375 94.9935 86.1375 94.0509C86.1375 92.5669 86.6689 91.4037 87.7318 90.5614C88.7947 89.6991 90.2988 89.2579 92.2441 89.2378H97.3881V91.7948H92.8758ZM96.9369 88.7565C96.9369 87.7939 96.626 87.0418 96.0043 86.5003C95.4027 85.9388 94.5002 85.6581 93.297 85.6581C92.5549 85.6581 91.7728 85.7984 90.9506 86.0792C90.1484 86.3399 89.3362 86.7209 88.5139 87.2223L87.1001 84.6954C87.8621 84.2342 88.5941 83.8632 89.2961 83.5824C89.998 83.2816 90.73 83.061 91.492 82.9206C92.2742 82.7601 93.1666 82.6799 94.1693 82.6799C96.2751 82.6799 97.8995 83.1813 99.0426 84.184C100.186 85.1868 100.767 86.5705 100.787 88.3354L100.817 98.8641H96.967L96.9369 88.7565Z" fill="black"/>
<path d="M81.9467 83.6726C81.2047 82.8303 80.3223 82.1685 79.2995 81.6872C78.2767 81.1858 77.2539 80.9351 76.2312 80.9351C75.2485 80.9351 74.326 81.1256 73.4636 81.5067C72.6213 81.8676 71.8693 82.3891 71.2075 83.0709C70.5657 83.7327 70.0643 84.5048 69.7034 85.3872C69.3424 86.2696 69.1619 87.2222 69.1619 88.245C69.1619 89.2678 69.3424 90.2304 69.7034 91.1329C70.0643 92.0153 70.5657 92.7874 71.2075 93.4492C71.8693 94.111 72.6213 94.6325 73.4636 95.0135C74.326 95.3945 75.2485 95.585 76.2312 95.585C77.2539 95.585 78.2667 95.3644 79.2694 94.9232C80.2722 94.462 81.1646 93.8403 81.9467 93.0582L84.3232 95.555C83.6213 96.2769 82.8091 96.9087 81.8866 97.4501C80.9841 97.9916 80.0315 98.4128 79.0288 98.7136C78.0461 98.9943 77.0434 99.1347 76.0206 99.1347C74.4764 99.1347 73.0324 98.864 71.6888 98.3225C70.3652 97.761 69.202 96.9889 68.1993 96.0062C67.2166 95.0235 66.4445 93.8704 65.8829 92.5468C65.3214 91.2232 65.0406 89.8093 65.0406 88.3052C65.0406 86.781 65.3214 85.3772 65.8829 84.0937C66.4445 82.7902 67.2366 81.647 68.2594 80.6644C69.2822 79.6817 70.4554 78.9196 71.779 78.3781C73.1227 77.8367 74.5867 77.5659 76.171 77.5659C77.1938 77.5659 78.1865 77.7063 79.1491 77.9871C80.1318 78.2478 81.0643 78.6288 81.9467 79.1302C82.8291 79.6115 83.6113 80.2031 84.2931 80.905L81.9467 83.6726Z" fill="black"/>
<path d="M47.4368 82.6799C48.9609 82.6799 50.2945 83.0209 51.4377 83.7027C52.5808 84.3846 53.4632 85.3472 54.0849 86.5906C54.7266 87.8139 55.0475 89.2479 55.0475 90.8923C55.0475 92.4967 54.7367 93.9106 54.115 95.1339C53.4933 96.3372 52.6109 97.2898 51.4677 97.9917C50.3447 98.6736 49.0211 99.0145 47.4969 99.0145C46.073 99.0145 44.8497 98.6936 43.8269 98.0519C42.8041 97.3901 42.022 96.4475 41.4805 95.2241C40.939 94.0008 40.6683 92.5569 40.6683 90.8923C40.6683 89.1676 40.929 87.6936 41.4504 86.4703C41.9919 85.2469 42.774 84.3144 43.7968 83.6727C44.8196 83.0108 46.0329 82.6799 47.4368 82.6799ZM46.5644 85.7784C45.682 85.7784 44.8898 85.999 44.1879 86.4402C43.506 86.8613 42.9746 87.453 42.5935 88.215C42.2125 88.9571 42.022 89.8194 42.022 90.8021C42.022 91.7848 42.2125 92.6571 42.5935 93.4192C42.9746 94.1813 43.506 94.7729 44.1879 95.1941C44.8898 95.6152 45.682 95.8258 46.5644 95.8258C47.4668 95.8258 48.249 95.6152 48.9108 95.1941C49.5926 94.7529 50.1241 94.1612 50.5051 93.4192C50.8862 92.6571 51.0767 91.7848 51.0767 90.8021C51.0767 89.8194 50.8862 88.9571 50.5051 88.215C50.1241 87.453 49.5926 86.8613 48.9108 86.4402C48.249 85.999 47.4668 85.7784 46.5644 85.7784ZM38.1113 76.5432H42.022V98.8641H38.1113V76.5432Z" fill="black"/>
<path d="M35.2138 86.2296C34.0908 86.1494 33.1181 86.3199 32.2959 86.741C31.4736 87.1421 30.8419 87.7237 30.4007 88.4858C29.9595 89.2478 29.7389 90.1202 29.7389 91.1029L28.686 90.9826C28.686 89.1977 28.9467 87.6936 29.4682 86.4703C29.9896 85.2269 30.7416 84.2843 31.7243 83.6426C32.707 83.0008 33.8702 82.6799 35.2138 82.6799V86.2296ZM25.8282 82.8303H29.7389V98.8641H25.8282V82.8303Z" fill="black"/>
<path d="M11.2206 77.5659C12.8049 77.5659 14.2789 77.8367 15.6426 78.3781C17.0064 78.9196 18.1896 79.6817 19.1923 80.6644C20.2151 81.647 21.0073 82.7902 21.5688 84.0937C22.1504 85.3772 22.4412 86.781 22.4412 88.3052C22.4412 89.8093 22.1504 91.2232 21.5688 92.5468C21.0073 93.8704 20.2151 95.0235 19.1923 96.0062C18.1896 96.9889 17.0064 97.761 15.6426 98.3225C14.2789 98.864 12.8049 99.1347 11.2206 99.1347C9.63627 99.1347 8.16225 98.864 6.79854 98.3225C5.45487 97.761 4.27165 96.9889 3.24886 96.0062C2.22607 95.0235 1.42388 93.8804 0.842297 92.5768C0.280766 91.2532 0 89.8294 0 88.3052C0 86.781 0.280766 85.3672 0.842297 84.0636C1.42388 82.7601 2.22607 81.627 3.24886 80.6644C4.27165 79.6817 5.45487 78.9196 6.79854 78.3781C8.16225 77.8367 9.63627 77.5659 11.2206 77.5659ZM11.2808 80.9652C10.2981 80.9652 9.37556 81.1557 8.51321 81.5367C7.65086 81.8977 6.88878 82.4191 6.22698 83.101C5.56517 83.7628 5.04375 84.5349 4.66271 85.4173C4.30173 86.2997 4.12124 87.2624 4.12124 88.3052C4.12124 89.348 4.31176 90.3207 4.69279 91.2232C5.07383 92.1056 5.59526 92.8877 6.25706 93.5696C6.91886 94.2514 7.68094 94.7829 8.54329 95.1639C9.40564 95.5449 10.3181 95.7355 11.2808 95.7355C12.2434 95.7355 13.1458 95.5449 13.9881 95.1639C14.8505 94.7829 15.6025 94.2514 16.2443 93.5696C16.886 92.8877 17.3874 92.1056 17.7484 91.2232C18.1294 90.3207 18.32 89.348 18.32 88.3052C18.32 87.2624 18.1294 86.2997 17.7484 85.4173C17.3874 84.5349 16.886 83.7628 16.2443 83.101C15.6025 82.4191 14.8505 81.8977 13.9881 81.5367C13.1458 81.1557 12.2434 80.9652 11.2808 80.9652Z" fill="black"/>
<path d="M73.0692 43.318C73.0692 43.9826 72.5304 44.5213 71.8659 44.5213C71.2013 44.5213 70.6626 43.9826 70.6626 43.318C70.6626 42.6535 71.2013 42.1147 71.8659 42.1147C72.5304 42.1147 73.0692 42.6535 73.0692 43.318Z" fill="black"/>
<path d="M69.4593 43.619C69.4593 44.1174 69.0553 44.5215 68.5569 44.5215C68.0585 44.5215 67.6544 44.1174 67.6544 43.619C67.6544 43.1206 68.0585 42.7166 68.5569 42.7166C69.0553 42.7166 69.4593 43.1206 69.4593 43.619Z" fill="black"/>
<path d="M67.6544 40.0091C67.6544 40.5076 67.2504 40.9116 66.7519 40.9116C66.2535 40.9116 65.8495 40.5076 65.8495 40.0091C65.8495 39.5107 66.2535 39.1067 66.7519 39.1067C67.2504 39.1067 67.6544 39.5107 67.6544 40.0091Z" fill="black"/>
<path d="M66.4512 36.3993C66.4512 36.8977 66.0471 37.3017 65.5487 37.3017C65.0503 37.3017 64.6462 36.8977 64.6462 36.3993C64.6462 35.9009 65.0503 35.4968 65.5487 35.4968C66.0471 35.4968 66.4512 35.9009 66.4512 36.3993Z" fill="black"/>
<path d="M65.8495 32.7894C65.8495 33.2878 65.4454 33.6919 64.947 33.6919C64.4486 33.6919 64.0446 33.2878 64.0446 32.7894C64.0446 32.291 64.4486 31.887 64.947 31.887C65.4454 31.887 65.8495 32.291 65.8495 32.7894Z" fill="black"/>
<path d="M65.2478 28.578C65.2478 29.0764 64.8437 29.4805 64.3453 29.4805C63.8469 29.4805 63.4429 29.0764 63.4429 28.578C63.4429 28.0796 63.8469 27.6755 64.3453 27.6755C64.8437 27.6755 65.2478 28.0796 65.2478 28.578Z" fill="black"/>
<path d="M65.8495 24.9681C65.8495 25.4665 65.4454 25.8706 64.947 25.8706C64.4486 25.8706 64.0446 25.4665 64.0446 24.9681C64.0446 24.4697 64.4486 24.0657 64.947 24.0657C65.4454 24.0657 65.8495 24.4697 65.8495 24.9681Z" fill="black"/>
<path d="M66.4512 21.3583C66.4512 21.8567 66.0471 22.2607 65.5487 22.2607C65.0503 22.2607 64.6462 21.8567 64.6462 21.3583C64.6462 20.8599 65.0503 20.4558 65.5487 20.4558C66.0471 20.4558 66.4512 20.8599 66.4512 21.3583Z" fill="black"/>
<path d="M68.2561 17.7484C68.2561 18.2468 67.852 18.6509 67.3536 18.6509C66.8552 18.6509 66.4512 18.2468 66.4512 17.7484C66.4512 17.25 66.8552 16.8459 67.3536 16.8459C67.852 16.8459 68.2561 17.25 68.2561 17.7484Z" fill="black"/>
<path d="M70.061 14.1385C70.061 14.637 69.657 15.041 69.1586 15.041C68.6601 15.041 68.2561 14.637 68.2561 14.1385C68.2561 13.6401 68.6601 13.2361 69.1586 13.2361C69.657 13.2361 70.061 13.6401 70.061 14.1385Z" fill="black"/>
<path d="M71.866 11.1302C71.866 11.6287 71.4619 12.0327 70.9635 12.0327C70.4651 12.0327 70.061 11.6287 70.061 11.1302C70.061 10.6318 70.4651 10.2278 70.9635 10.2278C71.4619 10.2278 71.866 10.6318 71.866 11.1302Z" fill="black"/>
<path d="M74.8741 8.12219C74.8741 8.6206 74.4701 9.02465 73.9717 9.02465C73.4733 9.02465 73.0692 8.6206 73.0692 8.12219C73.0692 7.62377 73.4733 7.21973 73.9717 7.21973C74.4701 7.21973 74.8741 7.62377 74.8741 8.12219Z" fill="black"/>
<path d="M77.8823 5.71569C77.8823 6.21411 77.4783 6.61815 76.9799 6.61815C76.4814 6.61815 76.0774 6.21411 76.0774 5.71569C76.0774 5.21728 76.4814 4.81323 76.9799 4.81323C77.4783 4.81323 77.8823 5.21728 77.8823 5.71569Z" fill="black"/>
<path d="M80.8905 3.91076C80.8905 4.40918 80.4864 4.81322 79.988 4.81322C79.4896 4.81322 79.0856 4.40918 79.0856 3.91076C79.0856 3.41235 79.4896 3.0083 79.988 3.0083C80.4864 3.0083 80.8905 3.41235 80.8905 3.91076Z" fill="black"/>
<path d="M85.102 2.70739C85.102 3.20581 84.698 3.60985 84.1996 3.60985C83.7012 3.60985 83.2971 3.20581 83.2971 2.70739C83.2971 2.20898 83.7012 1.80493 84.1996 1.80493C84.698 1.80493 85.102 2.20898 85.102 2.70739Z" fill="black"/>
<path d="M88.7118 1.50402C88.7118 2.00244 88.3077 2.40648 87.8093 2.40648C87.3109 2.40648 86.9069 2.00244 86.9069 1.50402C86.9069 1.00561 87.3109 0.601562 87.8093 0.601562C88.3077 0.601562 88.7118 1.00561 88.7118 1.50402Z" fill="black"/>
<path d="M71.866 46.6271C71.866 47.1255 71.4619 47.5295 70.9635 47.5295C70.4651 47.5295 70.061 47.1255 70.061 46.6271C70.061 46.1287 70.4651 45.7246 70.9635 45.7246C71.4619 45.7246 71.866 46.1287 71.866 46.6271Z" fill="black"/>
<path d="M74.2725 49.6354C74.2725 50.1338 73.8684 50.5378 73.37 50.5378C72.8716 50.5378 72.4675 50.1338 72.4675 49.6354C72.4675 49.137 72.8716 48.7329 73.37 48.7329C73.8684 48.7329 74.2725 49.137 74.2725 49.6354Z" fill="black"/>
<path d="M71.8659 49.3346C71.8659 49.6668 71.5965 49.9362 71.2642 49.9362C70.932 49.9362 70.6626 49.6668 70.6626 49.3346C70.6626 49.0023 70.932 48.7329 71.2642 48.7329C71.5965 48.7329 71.8659 49.0023 71.8659 49.3346Z" fill="black"/>
<path d="M74.8741 51.741C74.8741 52.0733 74.6047 52.3427 74.2724 52.3427C73.9401 52.3427 73.6708 52.0733 73.6708 51.741C73.6708 51.4088 73.9401 51.1394 74.2724 51.1394C74.6047 51.1394 74.8741 51.4088 74.8741 51.741Z" fill="black"/>
<path d="M78.4839 53.546C78.4839 53.8783 78.2146 54.1476 77.8823 54.1476C77.55 54.1476 77.2806 53.8783 77.2806 53.546C77.2806 53.2137 77.55 52.9443 77.8823 52.9443C78.2146 52.9443 78.4839 53.2137 78.4839 53.546Z" fill="black"/>
<path d="M82.0938 55.3509C82.0938 55.6832 81.8244 55.9525 81.4921 55.9525C81.1599 55.9525 80.8905 55.6832 80.8905 55.3509C80.8905 55.0186 81.1599 54.7493 81.4921 54.7493C81.8244 54.7493 82.0938 55.0186 82.0938 55.3509Z" fill="black"/>
<path d="M79.0855 55.0501C79.0855 55.2162 78.9508 55.3509 78.7847 55.3509C78.6186 55.3509 78.4839 55.2162 78.4839 55.0501C78.4839 54.8839 78.6186 54.7493 78.7847 54.7493C78.9508 54.7493 79.0855 54.8839 79.0855 55.0501Z" fill="black"/>
<path d="M85.102 56.2535C85.102 56.4196 84.9673 56.5543 84.8012 56.5543C84.635 56.5543 84.5004 56.4196 84.5004 56.2535C84.5004 56.0873 84.635 55.9526 84.8012 55.9526C84.9673 55.9526 85.102 56.0873 85.102 56.2535Z" fill="black"/>
<path d="M76.0773 53.8467C76.0773 54.0129 75.9427 54.1475 75.7765 54.1475C75.6104 54.1475 75.4757 54.0129 75.4757 53.8467C75.4757 53.6806 75.6104 53.5459 75.7765 53.5459C75.9427 53.5459 76.0773 53.6806 76.0773 53.8467Z" fill="black"/>
<path d="M72.4675 51.4402C72.4675 51.6064 72.3328 51.741 72.1667 51.741C72.0005 51.741 71.8658 51.6064 71.8658 51.4402C71.8658 51.2741 72.0005 51.1394 72.1667 51.1394C72.3328 51.1394 72.4675 51.2741 72.4675 51.4402Z" fill="black"/>
<path d="M69.4593 49.0337C69.4593 49.1999 69.3246 49.3346 69.1585 49.3346C68.9923 49.3346 68.8577 49.1999 68.8577 49.0337C68.8577 48.8676 68.9923 48.7329 69.1585 48.7329C69.3246 48.7329 69.4593 48.8676 69.4593 49.0337Z" fill="black"/>
<path d="M67.0528 46.0254C67.0528 46.1916 66.9181 46.3262 66.752 46.3262C66.5859 46.3262 66.4512 46.1916 66.4512 46.0254C66.4512 45.8593 66.5859 45.7246 66.752 45.7246C66.9181 45.7246 67.0528 45.8593 67.0528 46.0254Z" fill="black"/>
<path d="M64.6462 43.0174C64.6462 43.1835 64.5115 43.3182 64.3454 43.3182C64.1792 43.3182 64.0446 43.1835 64.0446 43.0174C64.0446 42.8512 64.1792 42.7166 64.3454 42.7166C64.5115 42.7166 64.6462 42.8512 64.6462 43.0174Z" fill="black"/>
<path d="M62.8413 39.4075C62.8413 39.5736 62.7066 39.7083 62.5404 39.7083C62.3743 39.7083 62.2396 39.5736 62.2396 39.4075C62.2396 39.2414 62.3743 39.1067 62.5404 39.1067C62.7066 39.1067 62.8413 39.2414 62.8413 39.4075Z" fill="black"/>
<path d="M61.638 35.7976C61.638 35.9638 61.5033 36.0985 61.3372 36.0985C61.1711 36.0985 61.0364 35.9638 61.0364 35.7976C61.0364 35.6315 61.1711 35.4968 61.3372 35.4968C61.5033 35.4968 61.638 35.6315 61.638 35.7976Z" fill="black"/>
<path d="M61.0363 32.1878C61.0363 32.3539 60.9017 32.4886 60.7355 32.4886C60.5694 32.4886 60.4347 32.3539 60.4347 32.1878C60.4347 32.0216 60.5694 31.887 60.7355 31.887C60.9017 31.887 61.0363 32.0216 61.0363 32.1878Z" fill="black"/>
<path d="M60.4348 28.5779C60.4348 28.7441 60.3001 28.8787 60.134 28.8787C59.9678 28.8787 59.8331 28.7441 59.8331 28.5779C59.8331 28.4118 59.9678 28.2771 60.134 28.2771C60.3001 28.2771 60.4348 28.4118 60.4348 28.5779Z" fill="black"/>
<path d="M61.0363 24.9681C61.0363 25.1342 60.9017 25.2689 60.7355 25.2689C60.5694 25.2689 60.4347 25.1342 60.4347 24.9681C60.4347 24.8019 60.5694 24.6672 60.7355 24.6672C60.9017 24.6672 61.0363 24.8019 61.0363 24.9681Z" fill="black"/>
<path d="M62.2397 21.3582C62.2397 21.5243 62.105 21.659 61.9389 21.659C61.7727 21.659 61.6381 21.5243 61.6381 21.3582C61.6381 21.1921 61.7727 21.0574 61.9389 21.0574C62.105 21.0574 62.2397 21.1921 62.2397 21.3582Z" fill="black"/>
<path d="M63.4429 17.1468C63.4429 17.3129 63.3083 17.4476 63.1421 17.4476C62.976 17.4476 62.8413 17.3129 62.8413 17.1468C62.8413 16.9806 62.976 16.8459 63.1421 16.8459C63.3083 16.8459 63.4429 16.9806 63.4429 17.1468Z" fill="black"/>
<path d="M65.2479 14.1385C65.2479 14.3046 65.1132 14.4393 64.9471 14.4393C64.7809 14.4393 64.6462 14.3046 64.6462 14.1385C64.6462 13.9723 64.7809 13.8376 64.9471 13.8376C65.1132 13.8376 65.2479 13.9723 65.2479 14.1385Z" fill="black"/>
<path d="M67.6544 10.5286C67.6544 10.6947 67.5197 10.8294 67.3536 10.8294C67.1874 10.8294 67.0527 10.6947 67.0527 10.5286C67.0527 10.3625 67.1874 10.2278 67.3536 10.2278C67.5197 10.2278 67.6544 10.3625 67.6544 10.5286Z" fill="black"/>
<path d="M70.061 8.12211C70.061 8.28825 69.9263 8.42293 69.7602 8.42293C69.594 8.42293 69.4594 8.28825 69.4594 8.12211C69.4594 7.95597 69.594 7.82129 69.7602 7.82129C69.9263 7.82129 70.061 7.95597 70.061 8.12211Z" fill="black"/>
<path d="M73.0692 5.71562C73.0692 5.88175 72.9345 6.01644 72.7683 6.01644C72.6022 6.01644 72.4675 5.88175 72.4675 5.71562C72.4675 5.54948 72.6022 5.41479 72.7683 5.41479C72.9345 5.41479 73.0692 5.54948 73.0692 5.71562Z" fill="black"/>
<path d="M76.0773 3.91068C76.0773 4.07682 75.9427 4.2115 75.7765 4.2115C75.6104 4.2115 75.4757 4.07682 75.4757 3.91068C75.4757 3.74455 75.6104 3.60986 75.7765 3.60986C75.9427 3.60986 76.0773 3.74455 76.0773 3.91068Z" fill="black"/>
<path d="M79.6872 2.10575C79.6872 2.27189 79.5525 2.40657 79.3864 2.40657C79.2203 2.40657 79.0856 2.27189 79.0856 2.10575C79.0856 1.93961 79.2203 1.80493 79.3864 1.80493C79.5525 1.80493 79.6872 1.93961 79.6872 2.10575Z" fill="black"/>
<path d="M83.8988 1.50419C83.8988 1.67033 83.7641 1.80501 83.5979 1.80501C83.4318 1.80501 83.2971 1.67033 83.2971 1.50419C83.2971 1.33805 83.4318 1.20337 83.5979 1.20337C83.7641 1.20337 83.8988 1.33805 83.8988 1.50419Z" fill="black"/>
<path d="M69.4594 46.3262C69.4594 46.6585 69.19 46.9279 68.8577 46.9279C68.5255 46.9279 68.2561 46.6585 68.2561 46.3262C68.2561 45.994 68.5255 45.7246 68.8577 45.7246C69.19 45.7246 69.4594 45.994 69.4594 46.3262Z" fill="black"/>
<path d="M67.0528 43.3182C67.0528 43.6505 66.7834 43.9198 66.4511 43.9198C66.1189 43.9198 65.8495 43.6505 65.8495 43.3182C65.8495 42.9859 66.1189 42.7166 66.4511 42.7166C66.7834 42.7166 67.0528 42.9859 67.0528 43.3182Z" fill="black"/>
<path d="M65.2478 39.7083C65.2478 40.0406 64.9785 40.31 64.6462 40.31C64.3139 40.31 64.0446 40.0406 64.0446 39.7083C64.0446 39.3761 64.3139 39.1067 64.6462 39.1067C64.9785 39.1067 65.2478 39.3761 65.2478 39.7083Z" fill="black"/>
<path d="M64.0446 36.0985C64.0446 36.4307 63.7752 36.7001 63.4429 36.7001C63.1107 36.7001 62.8413 36.4307 62.8413 36.0985C62.8413 35.7662 63.1107 35.4968 63.4429 35.4968C63.7752 35.4968 64.0446 35.7662 64.0446 36.0985Z" fill="black"/>
<path d="M63.4429 32.4886C63.4429 32.8209 63.1735 33.0902 62.8413 33.0902C62.509 33.0902 62.2396 32.8209 62.2396 32.4886C62.2396 32.1563 62.509 31.887 62.8413 31.887C63.1735 31.887 63.4429 32.1563 63.4429 32.4886Z" fill="black"/>
<path d="M62.8413 28.2772C62.8413 28.6095 62.572 28.8788 62.2397 28.8788C61.9074 28.8788 61.6381 28.6095 61.6381 28.2772C61.6381 27.9449 61.9074 27.6755 62.2397 27.6755C62.572 27.6755 62.8413 27.9449 62.8413 28.2772Z" fill="black"/>
<path d="M63.4429 24.6673C63.4429 24.9996 63.1735 25.269 62.8413 25.269C62.509 25.269 62.2396 24.9996 62.2396 24.6673C62.2396 24.335 62.509 24.0657 62.8413 24.0657C63.1735 24.0657 63.4429 24.335 63.4429 24.6673Z" fill="black"/>
<path d="M64.0446 21.0575C64.0446 21.3897 63.7752 21.6591 63.4429 21.6591C63.1107 21.6591 62.8413 21.3897 62.8413 21.0575C62.8413 20.7252 63.1107 20.4558 63.4429 20.4558C63.7752 20.4558 64.0446 20.7252 64.0446 21.0575Z" fill="black"/>
<path d="M65.2478 17.4476C65.2478 17.7799 64.9785 18.0492 64.6462 18.0492C64.3139 18.0492 64.0446 17.7799 64.0446 17.4476C64.0446 17.1153 64.3139 16.8459 64.6462 16.8459C64.9785 16.8459 65.2478 17.1153 65.2478 17.4476Z" fill="black"/>
<path d="M67.0528 13.8377C67.0528 14.17 66.7834 14.4394 66.4511 14.4394C66.1189 14.4394 65.8495 14.17 65.8495 13.8377C65.8495 13.5054 66.1189 13.2361 66.4511 13.2361C66.7834 13.2361 67.0528 13.5054 67.0528 13.8377Z" fill="black"/>
<path d="M69.4594 10.8294C69.4594 11.1617 69.19 11.4311 68.8577 11.4311C68.5255 11.4311 68.2561 11.1617 68.2561 10.8294C68.2561 10.4971 68.5255 10.2278 68.8577 10.2278C69.19 10.2278 69.4594 10.4971 69.4594 10.8294Z" fill="black"/>
<path d="M72.4676 7.82137C72.4676 8.15364 72.1982 8.42301 71.8659 8.42301C71.5336 8.42301 71.2643 8.15364 71.2643 7.82137C71.2643 7.48909 71.5336 7.21973 71.8659 7.21973C72.1982 7.21973 72.4676 7.48909 72.4676 7.82137Z" fill="black"/>
<path d="M75.4757 5.41487C75.4757 5.74715 75.2064 6.01651 74.8741 6.01651C74.5418 6.01651 74.2725 5.74715 74.2725 5.41487C74.2725 5.0826 74.5418 4.81323 74.8741 4.81323C75.2064 4.81323 75.4757 5.0826 75.4757 5.41487Z" fill="black"/>
<path d="M78.4839 3.60994C78.4839 3.94222 78.2146 4.21158 77.8823 4.21158C77.55 4.21158 77.2806 3.94222 77.2806 3.60994C77.2806 3.27766 77.55 3.0083 77.8823 3.0083C78.2146 3.0083 78.4839 3.27766 78.4839 3.60994Z" fill="black"/>
<path d="M82.0938 2.40657C82.0938 2.73885 81.8244 3.00821 81.4921 3.00821C81.1599 3.00821 80.8905 2.73885 80.8905 2.40657C80.8905 2.0743 81.1599 1.80493 81.4921 1.80493C81.8244 1.80493 82.0938 2.0743 82.0938 2.40657Z" fill="black"/>
<path d="M86.3052 1.2032C86.3052 1.53548 86.0358 1.80484 85.7036 1.80484C85.3713 1.80484 85.1019 1.53548 85.1019 1.2032C85.1019 0.870926 85.3713 0.601562 85.7036 0.601562C86.0358 0.601562 86.3052 0.870926 86.3052 1.2032Z" fill="black"/>
<path d="M77.2806 52.0419C77.2806 52.5403 76.8766 52.9443 76.3782 52.9443C75.8798 52.9443 75.4757 52.5403 75.4757 52.0419C75.4757 51.5434 75.8798 51.1394 76.3782 51.1394C76.8766 51.1394 77.2806 51.5434 77.2806 52.0419Z" fill="black"/>
<path d="M80.8905 53.8468C80.8905 54.3452 80.4864 54.7493 79.988 54.7493C79.4896 54.7493 79.0856 54.3452 79.0856 53.8468C79.0856 53.3484 79.4896 52.9443 79.988 52.9443C80.4864 52.9443 80.8905 53.3484 80.8905 53.8468Z" fill="black"/>
<path d="M84.5004 55.6517C84.5004 56.1501 84.0963 56.5542 83.5979 56.5542C83.0995 56.5542 82.6954 56.1501 82.6954 55.6517C82.6954 55.1533 83.0995 54.7493 83.5979 54.7493C84.0963 54.7493 84.5004 55.1533 84.5004 55.6517Z" fill="black"/>
<path d="M86.9068 55.6517C86.9068 56.1501 86.5028 56.5542 86.0044 56.5542C85.506 56.5542 85.1019 56.1501 85.1019 55.6517C85.1019 55.1533 85.506 54.7493 86.0044 54.7493C86.5028 54.7493 86.9068 55.1533 86.9068 55.6517Z" fill="black"/>
<path d="M71.2642 40.31C71.2642 40.9745 70.7255 41.5133 70.0609 41.5133C69.3964 41.5133 68.8577 40.9745 68.8577 40.31C68.8577 39.6454 69.3964 39.1067 70.0609 39.1067C70.7255 39.1067 71.2642 39.6454 71.2642 40.31Z" fill="black"/>
<path d="M70.061 36.7001C70.061 37.3647 69.5223 37.9034 68.8577 37.9034C68.1931 37.9034 67.6544 37.3647 67.6544 36.7001C67.6544 36.0356 68.1931 35.4968 68.8577 35.4968C69.5223 35.4968 70.061 36.0356 70.061 36.7001Z" fill="black"/>
<path d="M69.4593 33.0902C69.4593 33.7548 68.9206 34.2935 68.256 34.2935C67.5915 34.2935 67.0527 33.7548 67.0527 33.0902C67.0527 32.4257 67.5915 31.887 68.256 31.887C68.9206 31.887 69.4593 32.4257 69.4593 33.0902Z" fill="black"/>
<path d="M69.4593 28.8788C69.4593 29.5434 68.9206 30.0821 68.256 30.0821C67.5915 30.0821 67.0527 29.5434 67.0527 28.8788C67.0527 28.2143 67.5915 27.6755 68.256 27.6755C68.9206 27.6755 69.4593 28.2143 69.4593 28.8788Z" fill="black"/>
<path d="M69.4593 25.269C69.4593 25.9335 68.9206 26.4722 68.256 26.4722C67.5915 26.4722 67.0527 25.9335 67.0527 25.269C67.0527 24.6044 67.5915 24.0657 68.256 24.0657C68.9206 24.0657 69.4593 24.6044 69.4593 25.269Z" fill="black"/>
<path d="M70.061 21.0575C70.061 21.7221 69.5223 22.2608 68.8577 22.2608C68.1931 22.2608 67.6544 21.7221 67.6544 21.0575C67.6544 20.393 68.1931 19.8542 68.8577 19.8542C69.5223 19.8542 70.061 20.393 70.061 21.0575Z" fill="black"/>
<path d="M71.2642 17.4477C71.2642 18.1122 70.7255 18.6509 70.0609 18.6509C69.3964 18.6509 68.8577 18.1122 68.8577 17.4477C68.8577 16.7831 69.3964 16.2444 70.0609 16.2444C70.7255 16.2444 71.2642 16.7831 71.2642 17.4477Z" fill="black"/>
<path d="M73.6708 14.4394C73.6708 15.1039 73.1321 15.6426 72.4676 15.6426C71.803 15.6426 71.2643 15.1039 71.2643 14.4394C71.2643 13.7748 71.803 13.2361 72.4676 13.2361C73.1321 13.2361 73.6708 13.7748 73.6708 14.4394Z" fill="black"/>
<path d="M75.4758 11.4311C75.4758 12.0956 74.937 12.6343 74.2725 12.6343C73.6079 12.6343 73.0692 12.0956 73.0692 11.4311C73.0692 10.7665 73.6079 10.2278 74.2725 10.2278C74.937 10.2278 75.4758 10.7665 75.4758 11.4311Z" fill="black"/>
<path d="M78.484 8.42301C78.484 9.08756 77.9452 9.62629 77.2807 9.62629C76.6161 9.62629 76.0774 9.08756 76.0774 8.42301C76.0774 7.75845 76.6161 7.21973 77.2807 7.21973C77.9452 7.21973 78.484 7.75845 78.484 8.42301Z" fill="black"/>
<path d="M81.4921 6.01651C81.4921 6.68107 80.9534 7.21979 80.2889 7.21979C79.6243 7.21979 79.0856 6.68107 79.0856 6.01651C79.0856 5.35196 79.6243 4.81323 80.2889 4.81323C80.9534 4.81323 81.4921 5.35196 81.4921 6.01651Z" fill="black"/>
<path d="M84.5003 4.21158C84.5003 4.87614 83.9616 5.41486 83.297 5.41486C82.6325 5.41486 82.0938 4.87614 82.0938 4.21158C82.0938 3.54703 82.6325 3.0083 83.297 3.0083C83.9616 3.0083 84.5003 3.54703 84.5003 4.21158Z" fill="black"/>
<path d="M88.1102 2.40665C88.1102 3.0712 87.5714 3.60993 86.9069 3.60993C86.2423 3.60993 85.7036 3.0712 85.7036 2.40665C85.7036 1.7421 86.2423 1.20337 86.9069 1.20337C87.5714 1.20337 88.1102 1.7421 88.1102 2.40665Z" fill="black"/>
<path d="M92.3217 1.20328C92.3217 1.86783 91.783 2.40656 91.1184 2.40656C90.4539 2.40656 89.9152 1.86783 89.9152 1.20328C89.9152 0.538727 90.4539 0 91.1184 0C91.783 0 92.3217 0.538727 92.3217 1.20328Z" fill="black"/>
<path d="M75.4758 46.9279C75.4758 47.5924 74.937 48.1312 74.2725 48.1312C73.6079 48.1312 73.0692 47.5924 73.0692 46.9279C73.0692 46.2633 73.6079 45.7246 74.2725 45.7246C74.937 45.7246 75.4758 46.2633 75.4758 46.9279Z" fill="black"/>
<path d="M77.8823 49.3346C77.8823 49.9992 77.3435 50.5379 76.679 50.5379C76.0144 50.5379 75.4757 49.9992 75.4757 49.3346C75.4757 48.6701 76.0144 48.1313 76.679 48.1313C77.3435 48.1313 77.8823 48.6701 77.8823 49.3346Z" fill="black"/>
<path d="M80.8904 51.7411C80.8904 52.4057 80.3517 52.9444 79.6872 52.9444C79.0226 52.9444 78.4839 52.4057 78.4839 51.7411C78.4839 51.0766 79.0226 50.5378 79.6872 50.5378C80.3517 50.5378 80.8904 51.0766 80.8904 51.7411Z" fill="black"/>
<path d="M84.5003 54.1476C84.5003 54.8122 83.9616 55.3509 83.297 55.3509C82.6325 55.3509 82.0938 54.8122 82.0938 54.1476C82.0938 53.4831 82.6325 52.9443 83.297 52.9443C83.9616 52.9443 84.5003 53.4831 84.5003 54.1476Z" fill="black"/>
<path d="M89.3134 55.9525C89.3134 56.6171 88.7747 57.1558 88.1101 57.1558C87.4456 57.1558 86.9069 56.6171 86.9069 55.9525C86.9069 55.288 87.4456 54.7493 88.1101 54.7493C88.7747 54.7493 89.3134 55.288 89.3134 55.9525Z" fill="black"/>
<path d="M124.056 28.8787C124.056 14.0108 112.003 1.95788 97.1348 1.95788C82.2669 1.95788 70.214 14.0108 70.214 28.8787C70.214 43.7467 82.2669 55.7996 97.1348 55.7996C112.003 55.7996 124.056 43.7467 124.056 28.8787ZM126.014 28.8787C126.014 44.828 113.084 57.7575 97.1348 57.7575C81.1856 57.7575 68.2561 44.828 68.2561 28.8787C68.2561 12.9295 81.1856 0 97.1348 0C113.084 0 126.014 12.9295 126.014 28.8787Z" fill="black"/>
<path d="M112.308 28.8787C112.308 37.2588 105.515 44.0522 97.1348 44.0522C88.7546 44.0522 81.9612 37.2588 81.9612 28.8787C81.9612 20.4985 88.7546 13.7051 97.1348 13.7051C105.515 13.7051 112.308 20.4985 112.308 28.8787Z" fill="#FFD900"/>
<path d="M125.524 13.7052C125.524 16.6788 123.114 19.0894 120.14 19.0894C117.166 19.0894 114.756 16.6788 114.756 13.7052C114.756 10.7316 117.166 8.32104 120.14 8.32104C123.114 8.32104 125.524 10.7316 125.524 13.7052Z" fill="black"/>
</svg>
