<svg width="231" height="64" viewBox="0 0 231 64" fill="none" xmlns="http://www.w3.org/2000/svg">
<path d="M38.3678 61.2331C25.6048 57.7387 16.2144 46.0531 16.2144 32.1975C16.2144 19.0654 24.5221 7.98137 36.0804 3.76416C27.2911 9.06485 21.2693 18.7033 21.2693 29.6668C21.2693 40.7524 27.2903 50.5105 36.1992 55.6907C36.8027 57.6175 37.5243 59.4246 38.3678 61.2331Z" fill="#6E7ABA"/>
<path d="M23.0767 12.9207C14.407 17.7395 8.99019 25.2095 10.1941 31.5952C11.7577 40.0296 24.039 43.643 37.5243 39.6667C39.5702 39.0651 41.3776 38.3423 43.1835 37.499L41.6176 49.424C40.2941 49.9089 38.969 50.2681 37.5243 50.7507C20.7892 55.2096 4.53422 50.0279 1.16328 39.3068C-2.20766 28.8236 7.90667 16.7758 23.799 12.0767C23.5575 12.3176 23.3175 12.679 23.0767 12.9207Z" fill="#F58634"/>
<mask id="mask0_379_19346" style="mask-type:luminance" maskUnits="userSpaceOnUse" x="0" y="12" width="44" height="41">
<path d="M23.0767 12.9207C14.407 17.7395 8.99019 25.2095 10.1941 31.5952C11.7577 40.0296 24.039 43.643 37.5243 39.6667C39.5702 39.0651 41.3776 38.3423 43.1835 37.499L41.6176 49.424C40.2941 49.9089 38.969 50.2681 37.5243 50.7507C20.7892 55.2096 4.53422 50.0279 1.16328 39.3068C-2.20766 28.8236 7.90667 16.7758 23.799 12.0767C23.5575 12.3176 23.3175 12.679 23.0767 12.9207Z" fill="white"/>
</mask>
<g mask="url(#mask0_379_19346)">
<path d="M-3.89233 30.3896L14.5274 32.3179V34.7288L-3.89233 32.7998V30.3896ZM30.9021 36.4139H34.9954L30.3009 57.9789H26.3273L30.9021 36.4139ZM23.9202 35.4509H27.8923L12 56.8947H7.9067L23.9202 35.4509ZM-0.281363 41.8344L18.1399 34.7281V37.6186L-0.281363 44.7264V41.8344ZM-1.60491 11.3538L16.8156 23.0402V24.9685L-1.60491 13.1616V11.3538ZM1.40486 3.52246L19.8246 18.7032V20.5096L1.40486 5.45074V3.52246ZM-3.53116 20.6315L14.7697 26.896V28.7023L-3.53116 22.4378V20.6315Z" fill="#FEFEFE"/>
</g>
<path d="M60.1585 61.4734H54.9824V51.8343H59.9192V52.6775H56.0659V55.9318H59.6792V56.7751H56.0659V60.6309H60.1585V61.4734ZM61.4843 54.3656H62.4467V54.968H62.567C62.8071 54.7278 63.0494 54.4869 63.2894 54.3656C63.5309 54.2452 63.7717 54.1239 64.1329 54.1239C64.4933 54.1239 64.8545 54.2452 65.0945 54.3656C65.336 54.4869 65.5768 54.8468 65.8184 55.2097C66.1795 54.8468 66.4203 54.4869 66.7807 54.3656C67.0208 54.2452 67.3827 54.1239 67.6242 54.1239C68.2254 54.1239 68.707 54.3656 68.9478 54.7278C69.3082 55.2104 69.4301 55.8113 69.4301 56.6561V57.2577V61.4749H68.4677V57.016C68.4677 56.1742 68.3473 55.6916 68.2262 55.4514C67.9861 55.09 67.7439 54.9688 67.2638 54.9688C67.0223 54.9688 66.7815 54.9687 66.5415 55.0892C66.2999 55.2104 66.181 55.4506 65.9387 55.6916V61.4749H64.9764V57.016C64.9764 56.2932 64.8552 55.6916 64.7348 55.4514C64.4948 55.09 64.254 54.9688 63.8936 54.9688C63.6521 54.9688 63.4113 55.0892 63.1698 55.2104C62.9297 55.3294 62.6889 55.4506 62.4474 55.6916V61.4749H61.485L61.4843 54.3656ZM72.1998 60.0278C72.3187 60.2679 72.5602 60.5104 72.801 60.6316C73.0426 60.7506 73.2833 60.7506 73.5234 60.7506C74.0057 60.7506 74.3669 60.5104 74.6069 60.0278C74.8484 59.5451 74.9688 58.8223 74.9688 57.8578C74.9688 56.8948 74.8484 56.1727 74.6069 55.6901C74.3669 55.2089 74.0049 54.9672 73.5234 54.9672C73.2833 54.9672 73.0426 55.0877 72.801 55.2089C72.561 55.3279 72.3187 55.4491 72.1998 55.8105V60.0278ZM71.1163 54.3656H72.1991V54.968H72.318C72.5595 54.7278 72.8003 54.4869 73.0418 54.3656C73.2818 54.2452 73.5226 54.1239 73.8838 54.1239C74.4865 54.1239 75.0885 54.4869 75.4489 55.2097C75.8093 55.8113 76.0523 56.7758 76.0523 57.8585C76.0523 59.0655 75.81 59.908 75.4489 60.6324C75.0885 61.3552 74.4865 61.7151 73.8838 61.7151C73.5226 61.7151 73.2818 61.5939 73.0418 61.4749C72.6814 61.3559 72.5595 61.1135 72.318 60.7521L72.1991 60.8711V63.6449H71.1163V54.3656ZM80.0245 54.9672C79.5422 54.9672 79.1817 55.2089 78.9417 55.6901C78.5813 56.1727 78.4594 56.8948 78.4594 57.7388C78.4594 58.7018 78.5805 59.5451 78.8206 60.0278C79.181 60.6316 79.5422 60.8695 80.0245 60.8695C80.5068 60.8695 80.868 60.6316 81.2291 60.0278C81.4692 59.5451 81.5903 58.8223 81.5903 57.8578C81.5903 57.0145 81.4692 56.1727 81.2291 55.6901C80.868 55.2097 80.5068 54.9672 80.0245 54.9672ZM77.3766 57.8578C77.3766 56.6546 77.6182 55.8105 78.099 55.0877C78.5813 54.4861 79.1817 54.1232 80.0252 54.1232C80.8687 54.1232 81.4699 54.4861 81.9522 55.0877C82.4346 55.8105 82.6746 56.6546 82.6746 57.8578C82.6746 59.0647 82.4346 60.0278 81.9522 60.6316C81.5918 61.3544 80.8695 61.7143 80.0252 61.7143C79.1825 61.7143 78.5813 61.3544 78.099 60.6316C77.6182 60.0278 77.3766 59.0647 77.3766 57.8578ZM83.5166 54.3656H84.7212L85.9259 60.3899H86.0455L87.2494 54.3656H88.333L89.5376 60.3899H89.7792L90.9816 54.3656H92.1862L90.1403 61.4734H89.1764L87.9718 55.9325H87.7318L86.5278 61.4734H85.5655L83.5166 54.3656ZM98.3261 60.7506C97.9657 61.1112 97.6038 61.3544 97.2434 61.4734C96.8822 61.5924 96.3999 61.7136 95.9191 61.7136C94.9552 61.7136 94.2336 61.3537 93.7513 60.7506C93.269 60.0278 93.029 59.1845 93.029 57.8578C93.029 56.7751 93.269 55.8105 93.7513 55.0877C94.2336 54.4861 94.8341 54.1232 95.6775 54.1232C96.521 54.1232 97.2434 54.4861 97.7257 55.0877C98.0861 55.8105 98.3269 56.7751 98.3269 57.979V58.2207H94.1125V58.3412C94.1125 59.1837 94.354 59.7868 94.5948 60.146C94.9552 60.6309 95.4375 60.8688 95.9198 60.8688C96.281 60.8688 96.6422 60.7498 96.8822 60.6309C97.2434 60.3892 97.4842 60.2679 97.6046 60.027H98.3269V60.7506H98.3261ZM97.2426 57.3774C97.2426 56.6553 97.1215 56.053 96.8815 55.5696C96.521 55.0885 96.1591 54.968 95.6768 54.968C95.1945 54.968 94.8341 55.0885 94.594 55.5696C94.354 55.9325 94.2336 56.6553 94.1117 57.3774H97.2426ZM100.012 54.3656H100.975V54.8468C100.975 55.0885 100.975 55.2097 100.975 55.3294C100.975 55.4506 100.975 55.5696 100.855 55.6908H101.095C101.216 55.3294 101.577 54.968 101.939 54.7278C102.419 54.4876 102.9 54.3664 103.383 54.3664V55.4506C102.9 55.4506 102.54 55.5696 102.058 55.6908C101.697 55.8113 101.335 56.053 100.975 56.4129V61.4742H100.012V54.3656ZM104.827 51.4751H105.91V52.5578H104.827V51.4751ZM104.827 54.3656H105.91V61.4734H104.827V54.3656ZM107.958 54.3656H108.921V54.968H109.041C109.281 54.7278 109.523 54.4869 109.763 54.3656C110.005 54.2452 110.367 54.1239 110.606 54.1239C111.328 54.1239 111.811 54.3656 112.051 54.7278C112.412 55.2104 112.533 55.8113 112.533 56.6561V57.2577V61.4749H111.569V57.016C111.569 56.1742 111.45 55.6916 111.329 55.4514C111.089 55.09 110.847 54.9688 110.367 54.9688C110.125 54.9688 109.885 55.0892 109.643 55.2104C109.404 55.3294 109.163 55.4506 108.921 55.6916V61.4749H107.959L107.958 54.3656ZM117.952 60.0278C117.711 60.2679 117.47 60.5104 117.23 60.6316C116.988 60.7506 116.747 60.8695 116.387 60.8695C115.665 60.8695 115.061 60.6316 114.701 60.0278C114.219 59.4247 114.1 58.5806 114.1 57.4986C114.1 56.4129 114.219 55.5688 114.701 54.968C115.061 54.3656 115.665 54.1239 116.387 54.1239C116.747 54.1239 116.988 54.2452 117.23 54.3656C117.47 54.4869 117.711 54.7271 117.952 54.968H118.071V54.3656H119.035V61.2332C119.035 62.0765 118.914 62.6789 118.432 63.0395C118.071 63.5222 117.47 63.6434 116.627 63.6434C116.266 63.6434 115.905 63.6434 115.544 63.5222C115.183 63.4017 114.821 63.2805 114.339 63.0395V61.8341H115.061C115.303 62.1955 115.544 62.4364 115.784 62.5569C116.025 62.6781 116.266 62.7986 116.627 62.7986C117.23 62.7986 117.591 62.5569 117.71 62.3159C117.951 61.9553 118.07 61.3537 118.07 60.5096V60.027L117.952 60.0278ZM118.071 55.8113C117.831 55.4506 117.591 55.3287 117.349 55.2097C117.23 55.0885 116.988 54.968 116.627 54.968C116.145 54.968 115.784 55.2097 115.544 55.5696C115.304 56.0537 115.183 56.6553 115.183 57.4994C115.183 58.3434 115.304 58.945 115.544 59.4262C115.784 59.7883 116.146 60.0293 116.627 60.0293C116.987 60.0293 117.23 59.9088 117.349 59.7891C117.591 59.6686 117.831 59.5474 118.071 59.186V55.8113ZM123.489 62.7993H123.61C123.729 62.7993 123.729 62.7993 123.729 62.7993C124.333 62.7993 124.693 62.6789 124.934 62.4372C125.176 62.197 125.416 61.7143 125.537 61.112L123.489 54.3656H124.694L126.018 60.1475H126.139L127.464 54.3656H128.547L126.499 61.2332C126.259 62.1962 125.898 62.7993 125.537 63.1592C125.055 63.5222 124.574 63.7631 123.851 63.7631C123.73 63.7631 123.73 63.7631 123.611 63.6441H123.49V62.7993H123.489ZM132.157 54.9672C131.677 54.9672 131.316 55.2089 130.954 55.6901C130.713 56.1727 130.592 56.8948 130.592 57.7388C130.592 58.7018 130.713 59.5451 130.954 60.0278C131.194 60.6316 131.677 60.8695 132.157 60.8695C132.64 60.8695 133 60.6316 133.362 60.0278C133.604 59.5451 133.723 58.8223 133.723 57.8578C133.723 57.0145 133.604 56.1727 133.243 55.6901C133.001 55.2097 132.64 54.9672 132.157 54.9672ZM129.509 57.8578C129.509 56.6546 129.75 55.8105 130.231 55.0877C130.714 54.4861 131.316 54.1232 132.158 54.1232C133.001 54.1232 133.604 54.4861 134.085 55.0877C134.568 55.8105 134.808 56.6546 134.808 57.8578C134.808 59.0647 134.568 60.0278 134.085 60.6316C133.604 61.3544 133.002 61.7143 132.158 61.7143C131.317 61.7143 130.714 61.3544 130.231 60.6316C129.75 60.0278 129.509 59.0647 129.509 57.8578ZM140.947 61.4734H139.864V60.8695H139.743C139.504 61.1112 139.382 61.3544 139.142 61.4734C138.781 61.5924 138.54 61.5924 138.179 61.5924C137.819 61.5924 137.337 61.4734 137.095 61.3544C136.734 61.112 136.494 60.7506 136.373 60.3899C136.373 60.2687 136.254 60.0285 136.254 59.7876C136.254 59.5459 136.254 59.1845 136.254 58.4616V54.3656H137.215V58.8231C137.215 59.5459 137.337 60.0285 137.577 60.3899C137.697 60.6316 138.059 60.7506 138.419 60.7506C138.781 60.7506 139.021 60.7506 139.263 60.6316C139.382 60.5104 139.623 60.2687 139.864 60.0278V54.3649H140.947V61.4734ZM145.403 54.3656H146.606L147.811 60.3899H147.932L149.136 54.3656H150.219L151.424 60.3899H151.663L152.868 54.3656H153.951L152.024 61.4734H151.062L149.737 55.9325H149.617L148.413 61.4734H147.449L145.403 54.3656ZM155.276 51.4751H156.358V52.5578H155.276V51.4751ZM155.394 54.3656H156.358V61.4734H155.394V54.3656ZM161.175 61.4734H160.091C159.49 61.4734 159.13 61.3544 158.887 61.112C158.647 60.8703 158.526 60.2687 158.526 59.5459V55.0885H157.683V54.3656H158.526V52.0767H159.609V54.3656H161.175V55.0885H159.609V59.5459C159.609 60.0285 159.609 60.3899 159.73 60.5104C159.851 60.5104 160.09 60.6316 160.452 60.6316H161.175V61.4734ZM162.5 51.4751H163.462V54.968H163.583C163.823 54.7278 164.065 54.4869 164.305 54.3656C164.545 54.2452 164.907 54.1239 165.148 54.1239C165.871 54.1239 166.353 54.3656 166.593 54.7278C166.953 55.2104 167.075 55.8113 167.075 56.5341V57.2569V61.4742H166.111V57.0152C166.111 56.1735 165.992 55.6908 165.871 55.4506C165.63 55.0892 165.389 54.968 164.908 54.968C164.668 54.968 164.427 55.0885 164.185 55.2097C163.945 55.3287 163.704 55.4499 163.463 55.6908V61.4742H162.501V51.4751H162.5ZM175.02 61.4734H173.938V52.6775H171.409V51.8343H177.549V52.6775H175.021V61.4734H175.02ZM183.569 60.7506C183.208 61.1112 182.847 61.3544 182.485 61.4734C182.125 61.5924 181.643 61.7136 181.162 61.7136C180.198 61.7136 179.597 61.3537 179.114 60.7506C178.632 60.0278 178.392 59.1845 178.392 57.8578C178.392 56.7751 178.632 55.8105 178.993 55.0877C179.476 54.4861 180.198 54.1232 181.041 54.1232C181.884 54.1232 182.485 54.4861 182.968 55.0877C183.45 55.8105 183.57 56.7751 183.57 57.979V58.2207H179.476V58.3412C179.476 59.1837 179.598 59.7868 179.959 60.146C180.199 60.6309 180.681 60.8688 181.283 60.8688C181.525 60.8688 181.886 60.7498 182.247 60.6309C182.486 60.3892 182.729 60.2679 182.848 60.027H183.57V60.7506H183.569ZM182.606 57.3774C182.485 56.6553 182.366 56.053 182.123 55.5696C181.763 55.0885 181.401 54.968 181.041 54.968C180.558 54.968 180.078 55.0885 179.836 55.5696C179.596 55.9325 179.475 56.6553 179.475 57.3774H182.606ZM189.348 56.053H188.625C188.505 55.6908 188.385 55.3287 188.143 55.2097C187.903 54.968 187.662 54.968 187.421 54.968C186.94 54.968 186.578 55.2097 186.338 55.6908C186.098 56.2924 185.977 57.0152 185.977 57.8585C185.977 58.8231 186.098 59.5459 186.338 60.0285C186.578 60.6324 186.941 60.8703 187.421 60.8703C187.662 60.8703 187.903 60.7513 188.143 60.6324C188.385 60.3907 188.504 60.1475 188.625 59.7883H189.348V60.7513C189.108 61.112 188.746 61.3552 188.505 61.4742C188.144 61.5931 187.783 61.7143 187.421 61.7143C186.579 61.7143 185.977 61.3544 185.494 60.6316C185.134 60.0278 184.893 59.0647 184.893 57.8578C184.893 56.7751 185.133 55.8105 185.494 55.0877C185.977 54.4861 186.578 54.1232 187.421 54.1232C187.783 54.1232 188.144 54.2444 188.385 54.3649C188.746 54.4861 188.987 54.7263 189.348 54.9672V56.053ZM190.913 51.4751H191.996V54.968H192.117C192.357 54.7278 192.599 54.4869 192.839 54.3656C193.079 54.2452 193.321 54.1239 193.683 54.1239C194.284 54.1239 194.765 54.3656 195.126 54.7278C195.488 55.2104 195.609 55.8113 195.609 56.5341V57.2569V61.4742H194.645V57.0152C194.645 56.1735 194.526 55.6908 194.284 55.4506C194.166 55.0892 193.804 54.968 193.441 54.968C193.202 54.968 192.961 55.0885 192.719 55.2097C192.479 55.3287 192.239 55.4499 191.997 55.6908V61.4742H190.914V51.4751H190.913ZM197.415 54.3656H198.498V54.968H198.619C198.859 54.7278 199.101 54.4869 199.341 54.3656C199.581 54.2452 199.823 54.1239 200.184 54.1239C200.786 54.1239 201.267 54.3656 201.628 54.7278C201.989 55.2104 202.111 55.8113 202.111 56.6561V57.2577V61.4749H201.147V57.016C201.147 56.1742 201.028 55.6916 200.786 55.4514C200.667 55.09 200.304 54.9688 199.944 54.9688C199.704 54.9688 199.463 55.0892 199.221 55.2104C198.981 55.3294 198.74 55.4506 198.499 55.6916V61.4749H197.415V54.3656H197.415ZM206.205 54.9672C205.722 54.9672 205.361 55.2089 205.122 55.6901C204.761 56.1727 204.64 56.8948 204.64 57.7388C204.64 58.7018 204.76 59.5451 205 60.0278C205.36 60.6316 205.722 60.8695 206.205 60.8695C206.687 60.8695 207.047 60.6316 207.409 60.0278C207.649 59.5451 207.77 58.8223 207.77 57.8578C207.77 57.0145 207.649 56.1727 207.409 55.6901C207.047 55.2097 206.686 54.9672 206.205 54.9672ZM203.555 57.8578C203.555 56.6546 203.795 55.8105 204.278 55.0877C204.76 54.4861 205.36 54.1232 206.205 54.1232C207.047 54.1232 207.649 54.4861 208.132 55.0877C208.614 55.8105 208.853 56.6546 208.853 57.8578C208.853 59.0647 208.614 60.0278 208.132 60.6316C207.77 61.3544 207.048 61.7143 206.205 61.7143C205.361 61.7143 204.76 61.3544 204.278 60.6316C203.795 60.0278 203.555 59.0647 203.555 57.8578ZM210.539 51.4751H211.501V61.4734H210.539V51.4751ZM215.837 54.9672C215.354 54.9672 214.873 55.2089 214.632 55.6901C214.39 56.1727 214.271 56.8948 214.271 57.7388C214.271 58.7018 214.39 59.5451 214.632 60.0278C214.872 60.6316 215.233 60.8695 215.837 60.8695C216.317 60.8695 216.678 60.6316 216.919 60.0278C217.159 59.5451 217.402 58.8223 217.402 57.8578C217.402 57.0145 217.16 56.1727 216.919 55.6901C216.679 55.2097 216.317 54.9672 215.837 54.9672ZM213.188 57.8578C213.188 56.6546 213.428 55.8105 213.789 55.0877C214.272 54.4861 214.994 54.1232 215.837 54.1232C216.56 54.1232 217.281 54.4861 217.764 55.0877C218.245 55.8105 218.366 56.6546 218.366 57.8578C218.366 59.0647 218.245 60.0278 217.764 60.6316C217.281 61.3544 216.679 61.7143 215.837 61.7143C214.994 61.7143 214.272 61.3544 213.789 60.6316C213.428 60.0278 213.188 59.0647 213.188 57.8578ZM223.541 60.0278C223.301 60.2679 223.061 60.5104 222.819 60.6316C222.579 60.7506 222.339 60.8695 221.977 60.8695C221.254 60.8695 220.652 60.6316 220.291 60.0278C219.931 59.4247 219.69 58.5806 219.69 57.4986C219.69 56.4129 219.93 55.5688 220.291 54.968C220.652 54.3656 221.254 54.1239 221.977 54.1239C222.339 54.1239 222.579 54.2452 222.819 54.3656C223.061 54.4869 223.301 54.7271 223.541 54.968H223.662V54.3656H224.745V61.2332C224.745 62.0765 224.505 62.6789 224.144 63.0395C223.661 63.5222 223.061 63.6434 222.339 63.6434C221.856 63.6434 221.495 63.6434 221.134 63.5222C220.773 63.4017 220.412 63.2805 220.051 63.0395V61.8341H220.773C220.892 62.1955 221.134 62.4364 221.375 62.5569C221.616 62.6781 221.857 62.7986 222.217 62.7986C222.819 62.7986 223.18 62.5569 223.422 62.3159C223.541 61.9553 223.662 61.3537 223.662 60.5096V60.027L223.541 60.0278ZM223.662 55.8113C223.422 55.4506 223.18 55.3287 223.061 55.2097C222.819 55.0885 222.579 54.968 222.339 54.968C221.735 54.968 221.375 55.2097 221.134 55.5696C220.892 56.0537 220.773 56.6553 220.773 57.4994C220.773 58.3434 220.892 58.945 221.134 59.4262C221.374 59.7883 221.735 60.0293 222.339 60.0293C222.579 60.0293 222.819 59.9088 223.061 59.7891C223.3 59.6686 223.421 59.5474 223.662 59.186V55.8113ZM225.829 62.7993H225.95C226.071 62.7993 226.071 62.7993 226.19 62.7993C226.672 62.7993 227.033 62.6789 227.275 62.4372C227.515 62.197 227.755 61.7143 227.876 61.112L225.949 54.3656H227.032L228.357 60.1475H228.476L229.802 54.3656H230.885L228.839 61.2332C228.597 62.1962 228.235 62.7993 227.875 63.1592C227.515 63.5222 226.913 63.7631 226.189 63.7631C226.189 63.7631 226.07 63.7631 226.07 63.6441C225.949 63.6441 225.828 63.6441 225.828 63.6441L225.829 62.7993Z" fill="white"/>
<path d="M54.5002 4.2459C54.9826 4.12468 55.583 4.12468 56.0653 4.00496C56.5476 3.88374 57.0292 3.88374 57.3911 3.88374C57.7516 3.76327 58.1127 3.76327 58.3528 3.76327C58.7139 3.76327 58.8351 3.6428 58.9562 3.6428C59.1962 3.6428 59.437 3.88298 59.437 4.24515V21.7149C59.437 21.9551 59.3174 22.1968 59.0759 22.1968C58.8358 22.1968 58.5935 22.1968 58.4746 22.318C58.2331 22.318 57.9923 22.318 57.7523 22.318C57.6312 22.318 57.3919 22.318 57.27 22.318C57.03 22.318 56.9096 22.318 56.9096 22.318C56.6695 22.318 56.5484 22.1968 56.5484 21.9559V6.53484C56.5484 6.17268 56.428 5.93249 56.428 5.81127C56.3069 5.57033 56.3069 5.45061 56.188 5.32938C56.0668 5.20891 55.9464 5.20891 55.8268 5.08844C55.5853 5.08844 55.4664 5.08844 55.2241 5.08844C54.9841 5.08844 54.7433 5.08844 54.6221 5.08844L54.5002 4.2459ZM65.8185 3.40261C65.9381 3.40261 66.0585 3.52308 66.1797 3.52308C66.1797 3.6443 66.2985 3.6443 66.2985 3.76402L77.1352 18.1015L76.7741 4.12543C76.7741 4.00496 76.8937 3.88449 77.0141 3.88449C77.1352 3.88449 77.4964 3.88449 77.7364 3.76402C78.0976 3.76402 78.3399 3.76402 78.7003 3.76402C78.82 3.76402 78.9403 3.88449 78.9403 4.00496L78.5799 19.185V22.0771C78.5799 22.1968 78.4588 22.318 78.3399 22.318C78.0984 22.318 77.8576 22.318 77.6175 22.318C77.376 22.318 77.1352 22.318 76.8937 22.318H76.7741C76.6537 22.318 76.6537 22.1968 76.5325 22.0771L65.6981 7.73957L66.0585 22.0771C66.0585 22.1968 66.0585 22.318 65.8185 22.318C65.6981 22.318 65.3362 22.318 65.0946 22.318C64.7342 22.318 64.4934 22.4377 64.133 22.4377C64.0119 22.4377 63.893 22.318 63.893 22.1968L64.373 5.81127L63.0495 4.12468C63.0495 4.12468 62.9291 4.00421 62.9291 3.88374C62.9291 3.76327 63.0495 3.76327 63.2895 3.64355C63.4107 3.64355 63.6507 3.64355 63.893 3.52233C64.133 3.52233 64.373 3.52233 64.7342 3.52233C64.9758 3.52233 65.2165 3.52233 65.4566 3.40186C65.577 3.40261 65.8185 3.40261 65.8185 3.40261ZM92.3067 8.34192C92.1856 7.73957 92.0667 7.25767 91.8244 6.77503C91.5844 6.41362 91.2232 6.05221 90.862 5.81127C90.6205 5.57033 90.1397 5.32938 89.7793 5.20891C89.297 5.08844 88.8154 4.96873 88.3331 4.96873C87.8523 4.96873 87.3707 5.0892 87.0095 5.20891C86.5272 5.32938 86.1661 5.44986 85.8049 5.81127C85.4437 6.05221 85.2029 6.2939 84.9614 6.77503C84.7214 7.13644 84.601 7.6191 84.601 8.22145C84.601 8.70334 84.7214 9.18522 84.9614 9.54663C85.2029 9.90804 85.5649 10.1482 85.9253 10.3899C86.4061 10.7513 86.7688 10.9923 87.37 11.1127C87.8523 11.3537 88.4527 11.5954 88.935 11.7151C89.537 11.956 90.2593 12.3175 90.862 12.5591C91.4632 12.8001 92.0667 13.1615 92.5468 13.5229C93.0291 14.0048 93.3895 14.4867 93.7514 14.9686C93.993 15.5709 94.2337 16.2937 94.2337 17.0166C94.2337 17.7401 94.1126 18.463 93.8726 18.9448C93.6325 19.5472 93.3903 20.0291 93.0298 20.3912C92.6687 20.8731 92.3075 21.2338 91.8252 21.4747C91.3444 21.7157 90.7424 21.9566 90.2601 22.1975C89.6581 22.3188 89.0569 22.4385 88.4542 22.5582C87.853 22.5582 87.3715 22.6794 86.7703 22.6794C86.0464 22.6794 85.3241 22.5582 84.6017 22.5582C83.9998 22.4385 83.2782 22.3188 82.5558 22.0771C82.4347 22.0771 82.4347 22.0771 82.3143 21.9559C82.3143 21.9559 82.3143 21.8361 82.1947 21.8361C82.1947 21.5952 82.1947 21.233 82.1947 20.8724C82.1947 20.3905 82.1947 20.0291 82.1947 19.5464C82.0743 19.0646 82.0743 18.7039 82.0743 18.3425C82.0743 17.9803 82.0743 17.7394 82.0743 17.7394L82.917 17.6189C82.917 18.2213 83.157 18.8236 83.3978 19.3047C83.6393 19.7874 83.8801 20.1488 84.3617 20.3897C84.7221 20.7504 85.2044 20.8716 85.6852 21.1126C86.1676 21.2323 86.7703 21.2323 87.2503 21.2323C87.8538 21.2323 88.3338 21.2323 88.8162 21.1126C89.2985 20.9921 89.78 20.7511 90.1412 20.5095C90.5024 20.2685 90.8636 19.9071 90.9824 19.5457C91.2247 19.0638 91.3451 18.5819 91.3451 17.9796C91.3451 17.4977 91.2247 17.0158 90.9824 16.7749C90.7432 16.4142 90.5024 16.0528 90.0208 15.8111C89.6596 15.5702 89.1773 15.3285 88.695 15.0875C88.2142 14.8473 87.6122 14.7261 87.1314 14.4859C86.4076 14.245 85.8064 13.8836 85.2044 13.6419C84.6017 13.4009 83.9998 13.0395 83.5182 12.5584C83.0359 12.197 82.6755 11.7143 82.3143 11.112C82.0743 10.5104 81.832 9.78682 81.832 8.94428C81.832 7.98051 82.0735 7.13644 82.4347 6.41362C82.917 5.81127 83.3971 5.20891 83.9998 4.72703C84.7221 4.36562 85.4445 4.12468 86.288 3.88298C87.1307 3.76251 87.9719 3.6428 88.8154 3.6428C89.4181 3.6428 90.0201 3.6428 90.6205 3.76327C91.3444 3.88374 91.9456 4.00421 92.5475 4.12468C92.6679 4.12468 92.7891 4.12468 92.7891 4.2459C92.9079 4.36637 92.9079 4.36637 92.9079 4.48609C92.9079 4.72703 92.9079 4.96873 93.0291 5.32938C93.0291 5.81127 93.0291 6.17268 93.0291 6.53484C93.0291 7.01673 93.0291 7.37814 93.0291 7.6191C93.0291 7.98051 93.1495 8.10098 93.1495 8.22145L92.3067 8.34192ZM101.697 13.7639C102.54 13.6426 103.262 13.5229 103.865 13.4017C104.587 13.1615 105.068 12.9206 105.55 12.5591C105.91 12.1977 106.272 11.7151 106.514 11.234C106.754 10.6316 106.874 9.9088 106.874 9.18597C106.874 8.4624 106.754 7.86004 106.514 7.37814C106.272 6.77578 105.91 6.2939 105.55 5.93249C105.189 5.57033 104.707 5.33014 104.105 5.0892C103.504 4.96873 102.9 4.84826 102.179 4.84826C101.696 4.84826 101.335 4.84826 101.216 4.96948C100.975 4.96948 100.855 5.20967 100.855 5.57108V21.7149C100.855 21.9551 100.614 22.1968 100.373 22.1968C100.253 22.1968 100.013 22.1968 99.8906 22.318C99.6506 22.318 99.4083 22.318 99.1683 22.318C99.0479 22.318 98.8079 22.318 98.686 22.318C98.4467 22.318 98.3255 22.318 98.2059 22.318C97.9644 22.318 97.8432 22.1968 97.8432 21.9559V6.2939C97.8432 5.81127 97.7243 5.45061 97.6032 5.33014C97.3632 5.0892 97.002 4.96948 96.6408 4.96948C96.3993 4.96948 96.1585 5.08995 95.9185 5.08995V4.24666C96.7604 4.00571 97.844 3.88449 98.8078 3.76402C99.8906 3.64355 101.095 3.52308 102.54 3.52308C103.143 3.52308 103.745 3.6443 104.345 3.6443C104.949 3.76477 105.55 3.76477 106.031 4.00571C106.633 4.12618 107.114 4.24666 107.596 4.4876C108.079 4.72854 108.559 5.08995 108.921 5.45136C109.281 5.81202 109.523 6.29465 109.763 6.77654C110.005 7.25917 110.005 7.8608 110.005 8.58437C110.005 9.66785 109.763 10.6324 109.402 11.3552C108.92 12.078 108.319 12.6804 107.475 13.163C106.753 13.6441 105.909 14.0055 104.948 14.2465C103.864 14.4874 102.9 14.6079 101.817 14.6079L101.697 13.7639ZM124.934 4.48609C124.934 4.2459 125.055 4.12468 125.295 4.00421C125.537 4.00421 125.656 4.00421 125.898 4.00421C126.138 4.00421 126.38 3.88298 126.499 3.88298C126.741 3.88298 126.982 3.88298 127.103 3.88298C127.222 3.88298 127.343 3.88298 127.463 3.88298C127.703 3.88298 127.824 4.00421 127.824 4.24515V21.7149C127.824 21.9551 127.703 22.1968 127.463 22.1968C127.343 22.1968 127.103 22.1968 126.86 22.318C126.62 22.318 126.499 22.318 126.258 22.318C126.017 22.318 125.898 22.318 125.656 22.318C125.537 22.318 125.416 22.318 125.295 22.318C125.055 22.318 124.934 22.1968 124.934 21.9559V13.0403L115.784 13.1615V21.7149C115.784 21.9551 115.665 22.1968 115.423 22.1968C115.304 22.1968 115.062 22.1968 114.942 22.318C114.701 22.318 114.46 22.318 114.219 22.318C114.1 22.318 113.857 22.318 113.738 22.318C113.496 22.318 113.377 22.318 113.256 22.318C113.015 22.318 112.895 22.1968 112.895 21.9559V6.53484C112.895 6.17268 112.895 5.93249 112.895 5.81127C112.774 5.57033 112.655 5.45061 112.655 5.32938C112.534 5.20891 112.414 5.20891 112.173 5.08844C112.052 5.08844 111.931 5.08844 111.69 5.08844C111.45 5.08844 111.208 5.08844 110.968 5.08844V4.24515C111.45 4.12393 112.051 4.12393 112.533 4.00421C113.015 3.88298 113.496 3.88298 113.857 3.88298C114.218 3.76251 114.581 3.76251 114.821 3.76251C115.061 3.76251 115.303 3.64204 115.303 3.64204C115.664 3.64204 115.784 3.88223 115.784 4.2444V11.8363H124.934V4.48609ZM135.771 19.7874C135.771 20.0283 135.771 20.1488 135.771 20.3905C135.771 20.5102 135.891 20.6314 135.891 20.6314C136.011 20.7511 136.131 20.7511 136.252 20.7511C136.371 20.8716 136.613 20.8716 136.854 20.8716H138.901C139.742 20.8716 140.467 20.8716 140.947 20.7511C141.429 20.7511 141.911 20.6314 142.273 20.3905C142.633 20.2693 142.995 19.9079 143.235 19.4267C143.477 19.0653 143.838 18.3432 144.199 17.6197L144.921 17.7401C144.921 17.8606 144.921 17.9803 144.921 18.3432C144.8 18.5827 144.8 18.9448 144.679 19.3055C144.679 19.7881 144.56 20.1495 144.439 20.6322C144.319 20.9928 144.2 21.355 144.2 21.7157C144.079 22.0771 143.839 22.1975 143.356 22.1975C142.996 22.1975 142.513 22.1975 142.031 22.1975C141.55 22.1975 140.948 22.1975 140.225 22.1975C139.624 22.1975 138.902 22.1975 138.179 22.1975C137.456 22.1975 136.614 22.1975 135.772 22.1975H133.244C133.123 22.1975 133.002 22.0778 132.881 22.0778C132.881 21.9566 132.881 21.8369 132.881 21.8369V6.77578C132.881 6.17343 132.763 5.81202 132.52 5.6923C132.281 5.57108 131.919 5.45136 131.559 5.45136C131.438 5.45136 131.198 5.45136 130.957 5.45136L130.836 4.60807C131.076 4.60807 131.319 4.48684 131.799 4.48684C132.159 4.36637 132.641 4.36637 133.124 4.24666C133.606 4.24666 133.966 4.12543 134.447 4.12543C134.808 4.12543 135.17 4.00496 135.411 4.00496H141.07C141.431 4.00496 141.793 4.00496 142.153 4.00496C142.635 4.00496 142.997 4.00496 143.479 4.00496C143.598 4.00496 143.719 4.12543 143.719 4.2459C143.719 4.36637 143.839 4.60731 143.839 4.8475C143.839 5.08844 143.839 5.32938 143.839 5.56957C143.839 5.93174 143.839 6.17193 143.839 6.53409C143.839 6.77428 143.958 7.01597 143.958 7.25691C143.958 7.4971 143.958 7.73882 143.958 7.97976C143.958 8.10023 143.958 8.2207 143.958 8.2207L143.117 8.34117C142.997 7.61835 142.757 7.01597 142.635 6.65456C142.393 6.17193 142.274 5.93174 141.912 5.6908C141.671 5.56957 141.31 5.44986 140.83 5.44986C140.469 5.32938 139.866 5.32938 139.143 5.32938H136.495C136.255 5.32938 136.134 5.32938 136.012 5.32938C135.893 5.32938 135.893 5.44986 135.893 5.44986C135.772 5.44986 135.772 5.56957 135.772 5.56957C135.772 5.6908 135.772 5.81051 135.772 5.93174V12.3167C136.615 12.1962 137.456 12.1962 138.06 12.1962C138.782 12.075 139.504 12.075 139.987 12.075C140.469 12.075 140.948 11.9545 141.191 11.9545C141.552 11.9545 141.793 11.9545 141.793 11.9545C142.153 11.9545 142.275 12.075 142.275 12.4364C142.275 12.6774 142.275 12.7986 142.275 13.0388C142.275 13.2797 142.154 13.5214 142.154 13.7623L135.774 13.5214V19.7874H135.771ZM151.784 12.8001C152.626 12.6789 153.349 12.6789 153.951 12.4379C154.553 12.3175 155.033 11.956 155.516 11.7151C155.876 11.3537 156.238 10.8718 156.48 10.3899C156.598 9.90804 156.72 9.18597 156.72 8.4624C156.72 7.86004 156.598 7.37814 156.358 6.89626C156.238 6.41362 155.876 6.05221 155.516 5.69155C155.033 5.45061 154.553 5.20891 154.071 5.0892C153.468 4.96873 152.866 4.84826 152.266 4.84826C151.784 4.84826 151.542 4.84826 151.302 4.96948C151.062 5.08995 150.942 5.20967 150.942 5.57108V21.7149C150.942 21.9551 150.82 22.1968 150.58 22.1968C150.46 22.1968 150.22 22.1968 149.979 22.318C149.858 22.318 149.618 22.318 149.376 22.318C149.255 22.318 149.015 22.318 148.893 22.318C148.653 22.318 148.533 22.318 148.413 22.318C148.171 22.318 148.052 22.1968 148.052 21.9559V6.2939C148.052 5.81127 147.932 5.45061 147.692 5.20967C147.571 5.0892 147.209 4.96948 146.848 4.96948C146.607 4.96948 146.366 4.96948 146.126 5.08995V4.24666C147.088 4.00571 148.172 3.88449 149.255 3.76402C150.46 3.64355 151.543 3.52308 152.747 3.52308C153.23 3.52308 153.711 3.6443 154.313 3.6443C154.916 3.6443 155.395 3.76477 155.999 3.88449C156.481 4.00571 156.961 4.12543 157.443 4.36713C157.926 4.4876 158.406 4.84901 158.769 5.08995C159.13 5.45136 159.37 5.81202 159.61 6.29466C159.852 6.77654 159.852 7.37889 159.852 7.98127C159.852 8.70409 159.852 9.30644 159.61 9.78757C159.37 10.2702 159.13 10.7513 158.769 11.1127C158.407 11.4749 157.926 11.8363 157.443 12.1977C156.961 12.4379 156.481 12.6796 155.999 12.9206C156.239 13.0403 156.481 13.0403 156.842 13.1615C157.082 13.2812 157.443 13.5222 157.683 13.6426C157.925 13.8836 158.166 14.1253 158.526 14.4867C158.768 14.7269 158.887 15.0883 159.009 15.5709L160.213 19.185C160.332 19.6669 160.453 20.0283 160.694 20.3905C160.814 20.6314 160.936 20.8724 161.056 20.9928C161.176 21.1133 161.417 21.233 161.537 21.3543C161.778 21.3543 162.019 21.3543 162.259 21.3543V22.1968C162.14 22.1968 161.899 22.318 161.658 22.318C161.417 22.318 161.176 22.4377 160.936 22.4377C160.694 22.4377 160.574 22.4377 160.332 22.4377C160.213 22.4377 159.972 22.4377 159.972 22.4377C159.611 22.4377 159.249 22.4377 159.009 22.318C158.769 22.318 158.527 22.1968 158.287 21.9559C158.167 21.7157 157.927 21.474 157.805 21.233C157.565 20.8724 157.444 20.5102 157.322 20.0283L156.24 16.1733C156.118 15.6906 155.878 15.2095 155.638 14.8481C155.396 14.6071 155.156 14.3655 154.795 14.1253C154.555 14.004 154.073 13.8843 153.712 13.7639C153.23 13.7639 152.629 13.6426 152.026 13.6426L151.784 12.8001ZM167.797 19.7874C167.797 20.0283 167.797 20.1488 167.797 20.3905C167.797 20.5102 167.917 20.6314 167.917 20.6314C168.037 20.7511 168.158 20.7511 168.279 20.7511C168.398 20.8716 168.64 20.8716 169.001 20.8716H170.928C171.769 20.8716 172.492 20.8716 172.974 20.7511C173.577 20.7511 173.938 20.6314 174.3 20.3905C174.66 20.2693 175.021 19.9079 175.261 19.4267C175.622 19.0653 175.865 18.3432 176.225 17.6197L176.948 17.7401C176.948 17.8606 176.948 17.9803 176.948 18.3432C176.827 18.5827 176.827 18.9448 176.706 19.3055C176.706 19.7881 176.587 20.1495 176.466 20.6322C176.466 20.9928 176.346 21.355 176.226 21.7157C176.106 22.0771 175.866 22.1975 175.504 22.1975C175.021 22.1975 174.661 22.1975 174.057 22.1975C173.577 22.1975 172.975 22.1975 172.252 22.1975C171.651 22.1975 170.929 22.1975 170.205 22.1975C169.483 22.1975 168.641 22.1975 167.917 22.1975H165.268C165.149 22.1975 165.028 22.0778 165.028 22.0778C164.908 21.9566 164.908 21.8369 164.908 21.8369V6.77578C164.908 6.17343 164.788 5.81202 164.547 5.6923C164.307 5.57108 164.066 5.45136 163.705 5.45136C163.464 5.45136 163.223 5.45136 162.981 5.45136L162.863 4.60807C163.102 4.60807 163.464 4.48684 163.824 4.48684C164.307 4.36637 164.668 4.36637 165.15 4.24666C165.631 4.24666 165.993 4.12543 166.474 4.12543C166.834 4.12543 167.196 4.00496 167.437 4.00496H173.097C173.457 4.00496 173.819 4.00496 174.301 4.00496C174.662 4.00496 175.023 4.00496 175.505 4.00496C175.745 4.00496 175.745 4.12543 175.866 4.2459C175.866 4.36637 175.866 4.60731 175.866 4.8475C175.866 5.08844 175.866 5.32938 175.866 5.56957C175.866 5.93174 175.866 6.17193 175.985 6.53409C175.985 6.77428 175.985 7.01597 175.985 7.25691C175.985 7.4971 175.985 7.73882 175.985 7.97976C175.985 8.10023 175.985 8.2207 175.985 8.2207L175.263 8.34117C175.023 7.61835 174.902 7.01597 174.662 6.65456C174.54 6.17193 174.301 5.93174 173.939 5.6908C173.698 5.56957 173.337 5.44986 172.975 5.44986C172.493 5.32938 171.893 5.32938 171.291 5.32938H168.521C168.281 5.32938 168.161 5.32938 168.039 5.32938L167.918 5.44986C167.799 5.44986 167.799 5.56957 167.799 5.56957C167.799 5.6908 167.799 5.81051 167.799 5.93174V12.3167C168.642 12.1962 169.483 12.1962 170.206 12.1962C170.93 12.075 171.531 12.075 172.012 12.075C172.614 12.075 172.975 11.9545 173.337 11.9545C173.578 11.9545 173.819 11.9545 173.939 11.9545C174.179 11.9545 174.3 12.075 174.3 12.4364C174.3 12.6774 174.3 12.7986 174.3 13.0388C174.3 13.2797 174.3 13.5214 174.179 13.7623L167.799 13.5214V19.7874H167.797Z" fill="#F58634"/>
<path d="M65.3368 31.7148C65.2164 31.1125 65.0953 30.6313 64.8545 30.2692C64.6152 29.9085 64.2533 29.5471 64.0118 29.1857C63.6514 28.9447 63.169 28.8243 62.8071 28.5833C62.3263 28.4621 61.8448 28.4621 61.3624 28.4621C60.8801 28.4621 60.4008 28.4621 60.0389 28.5833C59.5566 28.7031 59.1962 28.944 58.8342 29.1857C58.4738 29.4259 58.2315 29.7873 57.9915 30.1495C57.7515 30.6313 57.6303 31.1125 57.6303 31.5951C57.6303 32.1975 57.7515 32.5589 57.9915 32.9203C58.2315 33.2817 58.5927 33.6431 58.9554 33.884C59.4362 34.125 59.9177 34.3659 60.4001 34.6076C60.8801 34.8478 61.4828 34.9675 61.9651 35.2092C62.6875 35.4509 63.2887 35.6903 63.8921 35.932C64.4933 36.2935 65.0946 36.6549 65.5761 37.0178C66.0584 37.3777 66.4196 37.8596 66.7808 38.4634C67.0208 38.9438 67.2631 39.6666 67.2631 40.5107C67.2631 41.2327 67.1427 41.8351 66.9027 42.4382C66.6611 42.9208 66.4204 43.4012 66.0592 43.8854C65.6988 44.246 65.3368 44.6082 64.8545 44.8469C64.3722 45.2098 63.7718 45.45 63.2894 45.5712C62.6882 45.8114 62.0848 45.9319 61.6047 45.9319C61.002 46.0531 60.4008 46.0531 59.7981 46.0531C59.0758 46.0531 58.3534 46.0531 57.6311 45.9319C57.0299 45.8114 56.306 45.6902 55.5837 45.5712C55.4648 45.5712 55.4648 45.5712 55.3436 45.45C55.3436 45.331 55.3436 45.331 55.3436 45.2105C55.2233 44.9681 55.2232 44.7279 55.2232 44.246C55.2232 43.8854 55.2232 43.402 55.2232 43.0421C55.1036 42.5579 55.1036 42.198 55.1036 41.8351C55.1036 41.4752 55.1036 41.2327 55.1036 41.1123H55.9456C55.9456 41.7154 56.1871 42.3192 56.4279 42.6784C56.6694 43.161 56.9102 43.5224 57.3918 43.8854C57.7522 44.124 58.233 44.3665 58.7153 44.4877C59.1977 44.6082 59.7981 44.7279 60.2804 44.7279C60.8816 44.7279 61.3632 44.6082 61.8455 44.4877C62.3278 44.3665 62.8079 44.246 63.1698 44.0051C63.5317 43.6437 63.8936 43.4012 64.0125 42.9208C64.2541 42.5587 64.373 41.9563 64.373 41.476C64.373 40.8721 64.2541 40.5114 64.0125 40.1493C63.7725 39.7886 63.5317 39.5462 63.0502 39.3075C62.6897 38.9446 62.2074 38.7036 61.7251 38.5831C61.2443 38.343 60.6416 38.1005 60.1593 37.8603C59.4377 37.6201 58.8357 37.3777 58.233 37.1375C57.6311 36.7768 57.0299 36.4147 56.5483 36.054C56.066 35.6911 55.7056 35.21 55.3436 34.6084C55.1036 34.0045 54.8613 33.2824 54.8613 32.4391C54.8613 31.4754 55.1029 30.6321 55.4648 29.9093C55.9456 29.1864 56.4272 28.5841 57.0299 28.2227C57.7522 27.862 58.4746 27.4999 59.3173 27.3794C60.1585 27.1384 61.002 27.018 61.8447 27.018C62.4467 27.018 63.0494 27.1384 63.6506 27.2589C64.3722 27.2589 64.9757 27.3794 65.5769 27.4999C65.698 27.6203 65.8184 27.6203 65.8184 27.74C65.938 27.74 65.938 27.8613 65.938 27.8613C65.938 28.1015 65.938 28.4629 66.0584 28.8243C66.0584 29.1857 66.0584 29.5479 66.0584 30.029C66.0584 30.3904 66.0584 30.7518 66.0584 31.1132C66.1796 31.3542 66.1796 31.5959 66.1796 31.7156L65.3368 31.7148ZM79.4233 27.0157C80.7469 27.0157 82.0727 27.2567 83.1554 27.6188C84.2382 28.1007 85.0824 28.7023 85.9252 29.4251C86.6475 30.2684 87.2487 31.2322 87.6099 32.3172C88.0922 33.5226 88.2126 34.8471 88.2126 36.2927C88.2126 37.8588 88.0922 39.1848 87.6099 40.388C87.1291 41.7139 86.4052 42.6769 85.564 43.5209C84.7205 44.3642 83.7566 44.9658 82.5542 45.4485C81.3496 45.8099 80.0245 46.0523 78.4594 46.0523C77.1359 46.0523 75.932 45.8106 74.8485 45.4485C73.7649 44.9658 72.8003 44.365 72.078 43.5209C71.2352 42.7981 70.7544 41.8336 70.2729 40.6296C69.9124 39.4242 69.6702 38.099 69.6702 36.6534C69.6702 35.0872 69.9117 33.7628 70.394 32.5581C70.8748 31.3527 71.4768 30.2684 72.3188 29.5463C73.1622 28.7023 74.2458 28.0999 75.4497 27.6181C76.6543 27.2574 77.9794 27.0157 79.4233 27.0157ZM78.701 28.3416C77.6182 28.3416 76.774 28.5826 76.0524 28.944C75.33 29.4259 74.7266 29.9078 74.245 30.6306C73.7642 31.3534 73.4038 32.0762 73.2826 33.04C73.0426 33.8833 72.9222 34.8471 72.9222 35.8108C72.9222 37.0178 73.0426 38.0998 73.2826 39.0643C73.5227 40.1478 73.8846 41.1115 74.3662 41.9548C74.8485 42.7989 75.5708 43.4005 76.4136 44.0043C77.1359 44.487 78.0983 44.7271 79.3029 44.7271C80.2668 44.7271 81.2292 44.487 81.9515 44.1233C82.6739 43.6422 83.2773 43.0406 83.7566 42.4375C84.239 41.7146 84.4805 40.8713 84.7205 39.9083C84.9606 38.9438 85.0817 38.1005 85.0817 37.0178C85.0817 35.932 84.9606 34.9668 84.7205 33.884C84.4805 32.8006 84.1178 31.836 83.6378 31.1125C83.0343 30.2692 82.4331 29.5471 81.5904 29.0645C80.7469 28.5826 79.7852 28.3416 78.701 28.3416ZM94.9545 43.1603C94.9545 43.4005 94.9545 43.6429 94.9545 43.7641C94.9545 43.8846 94.9545 44.0043 95.0756 44.124C95.1945 44.124 95.1945 44.2453 95.4361 44.2453C95.5557 44.2453 95.7972 44.2453 96.038 44.2453H97.6031C98.4466 44.2453 99.1682 44.2453 99.6505 44.2453C100.131 44.124 100.613 44.0051 100.975 43.8846C101.335 43.6429 101.697 43.2815 101.939 42.7996C102.179 42.4382 102.54 41.7154 102.9 40.9933L103.623 41.1123C103.623 41.2327 103.623 41.354 103.623 41.7154C103.504 41.9556 103.504 42.3192 103.383 42.7996C103.262 43.1603 103.262 43.6429 103.143 44.0051C103.022 44.4877 102.901 44.8469 102.901 45.0886C102.781 45.4492 102.419 45.6902 102.058 45.6902C101.336 45.6902 100.374 45.6902 99.1689 45.5712C97.965 45.5712 96.6415 45.5712 94.9545 45.5712H92.427C92.3066 45.5712 92.1855 45.5712 92.0666 45.45C92.0666 45.331 92.0666 45.331 92.0666 45.2105V29.9078C92.0666 29.6668 91.9455 29.4251 91.9455 29.1849C91.8251 29.0645 91.8251 28.944 91.7062 28.8235C91.5851 28.7031 91.4639 28.5833 91.345 28.5833C91.1035 28.5833 90.9823 28.4621 90.7423 28.4621C90.5023 28.4621 90.3811 28.5833 90.1404 28.5833L90.02 27.7393C90.6212 27.6196 91.1027 27.4991 91.5851 27.4991C92.0674 27.3786 92.5474 27.2582 92.9086 27.2582C93.3909 27.2582 93.6325 27.2582 93.8725 27.1377C94.2337 27.1377 94.3548 27.1377 94.4737 27.1377C94.716 27.1377 94.956 27.2582 94.956 27.6203V43.1603H94.9545ZM109.163 39.9076C109.163 40.6304 109.282 41.3532 109.403 41.8343C109.642 42.4375 109.885 42.7989 110.367 43.1603C110.727 43.5217 111.088 43.7641 111.569 43.8846C112.173 44.0043 112.654 44.1233 113.255 44.1233C113.978 44.1233 114.7 44.0043 115.422 43.7634C116.145 43.5217 116.869 43.1595 117.591 42.7989V27.9802C117.591 27.7393 117.71 27.4983 117.951 27.4983C118.191 27.4983 118.312 27.3779 118.553 27.3779C118.793 27.3779 119.035 27.3779 119.155 27.3779C119.396 27.3779 119.637 27.3779 119.757 27.2574C119.997 27.2574 120.118 27.2574 120.118 27.2574C120.358 27.2574 120.479 27.3779 120.479 27.7393V45.2098C120.479 45.4492 120.358 45.5704 120.118 45.5704C119.997 45.6894 119.757 45.6894 119.636 45.6894C119.396 45.6894 119.154 45.8106 119.034 45.8106C118.793 45.8106 118.674 45.8106 118.431 45.8106C118.312 45.8106 118.191 45.8106 118.07 45.8106C117.83 45.8106 117.71 45.6894 117.71 45.4492L117.591 44.1233C116.627 44.7272 115.664 45.0878 114.581 45.4492C113.496 45.8106 112.413 46.0531 111.209 46.0531C110.607 46.0531 109.885 45.9319 109.282 45.6902C108.681 45.5712 108.199 45.3303 107.718 44.8469C107.236 44.487 106.875 44.0051 106.633 43.4012C106.393 42.7996 106.273 42.0768 106.273 41.2327V29.9085C106.273 29.6676 106.154 29.4259 106.154 29.1857C106.154 29.0652 106.033 28.9447 105.912 28.8243C105.793 28.7038 105.672 28.5841 105.551 28.5841C105.311 28.5841 105.191 28.4629 104.95 28.4629C104.829 28.4629 104.589 28.5841 104.346 28.5841L104.228 27.74C104.829 27.6203 105.31 27.4999 105.793 27.4999C106.273 27.3794 106.755 27.2589 107.116 27.2589C107.599 27.2589 107.839 27.2589 108.2 27.1384C108.441 27.1384 108.56 27.1384 108.682 27.1384C108.922 27.1384 109.164 27.2589 109.164 27.6211V39.9076H109.163ZM128.185 28.7031C127.463 28.7031 126.981 28.8235 126.499 28.8235C126.018 28.8235 125.656 28.944 125.416 29.1849C125.176 29.4251 124.815 29.6668 124.694 30.1487C124.454 30.6306 124.334 31.2322 124.093 31.955H123.369C123.369 31.8353 123.369 31.7141 123.369 31.5944C123.369 31.3534 123.369 31.1117 123.369 30.8715C123.369 30.6306 123.369 30.3889 123.489 30.0275C123.489 29.6668 123.489 29.4251 123.489 29.0645C123.489 28.8235 123.489 28.5826 123.489 28.2212C123.611 27.9802 123.611 27.8605 123.611 27.6188C123.611 27.4983 123.729 27.4983 123.851 27.4983C124.814 27.4983 125.777 27.4983 126.62 27.4983C127.463 27.4983 128.304 27.4983 129.029 27.4983H134.205C134.927 27.4983 135.771 27.4983 136.613 27.4983C137.455 27.4983 138.419 27.4983 139.382 27.4983C139.503 27.4983 139.623 27.4983 139.623 27.6188C139.623 27.8598 139.623 27.9795 139.623 28.2212C139.623 28.5826 139.623 28.8235 139.742 29.0645C139.742 29.4251 139.742 29.6668 139.742 30.0275C139.742 30.3889 139.742 30.6306 139.742 30.8715C139.742 31.1117 139.742 31.3534 139.742 31.5944C139.742 31.7141 139.742 31.8353 139.742 31.955H139.021C138.781 31.2322 138.659 30.6298 138.419 30.1487C138.298 29.6661 138.058 29.4251 137.817 29.1849C137.455 28.944 137.094 28.8235 136.732 28.8235C136.252 28.8235 135.65 28.7031 135.048 28.7031H133V45.2098C133 45.4492 132.88 45.5704 132.64 45.5704C132.519 45.6894 132.279 45.6894 132.039 45.6894C131.797 45.6894 131.677 45.8106 131.435 45.8106C131.195 45.8106 131.075 45.8106 130.834 45.8106C130.713 45.8106 130.592 45.8106 130.473 45.8106C130.231 45.8106 130.112 45.6894 130.112 45.4492V28.7031H128.185ZM140.586 27.7385C141.189 27.6188 141.669 27.4983 142.151 27.4983C142.634 27.3779 143.115 27.2574 143.477 27.2574C143.957 27.2574 144.2 27.2574 144.439 27.1369C144.8 27.1369 144.921 27.1369 145.042 27.1369C145.282 27.1369 145.523 27.2574 145.523 27.6196V45.2098C145.523 45.4492 145.404 45.5704 145.162 45.5704C144.922 45.6894 144.802 45.6894 144.561 45.6894C144.319 45.6894 144.078 45.8106 143.957 45.8106C143.718 45.8106 143.477 45.8106 143.356 45.8106C143.236 45.8106 142.996 45.8106 142.996 45.8106C142.756 45.8106 142.635 45.6894 142.635 45.4492V29.9078C142.635 29.6668 142.514 29.4251 142.514 29.1849C142.393 29.0645 142.393 28.944 142.274 28.8235C142.153 28.7031 142.033 28.5833 141.913 28.5833C141.671 28.5833 141.553 28.4621 141.31 28.4621C141.07 28.4621 140.949 28.5833 140.708 28.5833L140.586 27.7385ZM159.008 27.0157C160.331 27.0157 161.535 27.2567 162.619 27.6188C163.704 28.1007 164.667 28.7023 165.389 29.4251C166.232 30.2684 166.833 31.2322 167.194 32.3172C167.677 33.5226 167.797 34.8471 167.797 36.2927C167.797 37.8588 167.555 39.1848 167.194 40.388C166.713 41.7139 165.991 42.6769 165.148 43.5209C164.305 44.3642 163.341 44.9658 162.139 45.4485C160.934 45.8099 159.489 46.0523 158.044 46.0523C156.72 46.0523 155.516 45.8106 154.433 45.4485C153.349 44.9658 152.385 44.365 151.662 43.5209C150.82 42.7981 150.218 41.8336 149.857 40.6296C149.497 39.4242 149.255 38.099 149.255 36.6534C149.255 35.0872 149.496 33.7628 149.978 32.5581C150.459 31.3527 151.061 30.2684 151.905 29.5463C152.747 28.7023 153.83 28.0999 155.034 27.6181C156.238 27.2574 157.563 27.0157 159.008 27.0157ZM158.285 28.3416C157.203 28.3416 156.358 28.5826 155.637 28.944C154.914 29.4259 154.311 29.9078 153.829 30.6306C153.349 31.3534 152.988 32.0762 152.747 33.04C152.627 33.8833 152.507 34.8471 152.507 35.8108C152.507 37.0178 152.627 38.0998 152.867 39.0643C153.107 40.1478 153.469 41.1115 153.951 41.9548C154.433 42.7989 155.155 43.4005 155.877 44.0043C156.72 44.487 157.683 44.7271 158.887 44.7271C159.851 44.7271 160.814 44.487 161.536 44.1233C162.258 43.6422 162.862 43.0406 163.341 42.4375C163.704 41.7146 164.065 40.8713 164.305 39.9083C164.545 38.9438 164.666 38.1005 164.666 37.0178C164.666 35.932 164.545 34.9668 164.305 33.884C164.065 32.8006 163.704 31.836 163.222 31.1125C162.619 30.2692 162.017 29.5471 161.175 29.0645C160.331 28.5826 159.369 28.3416 158.285 28.3416ZM173.095 26.896C173.215 26.896 173.215 26.896 173.335 27.0157C173.335 27.0157 173.455 27.1362 173.577 27.2567L184.291 41.5949L183.929 27.4976C183.929 27.3771 184.051 27.3771 184.171 27.3771C184.411 27.2567 184.653 27.2567 184.893 27.2567C185.254 27.2567 185.616 27.2567 185.856 27.2567C185.976 27.2567 186.097 27.2567 186.097 27.4976L185.737 42.6769V45.5697C185.737 45.6887 185.616 45.6887 185.494 45.6887C185.255 45.8099 185.134 45.8099 184.893 45.8099C184.652 45.8099 184.411 45.8099 184.171 45.8099C184.051 45.8099 183.929 45.8099 183.929 45.8099C183.81 45.6887 183.81 45.6887 183.81 45.5697L172.854 31.1117L173.215 45.5697C173.215 45.6887 173.215 45.6887 172.973 45.6887C172.854 45.6887 172.613 45.8099 172.251 45.8099C171.89 45.8099 171.649 45.8099 171.408 45.8099C171.168 45.8099 171.168 45.6887 171.168 45.5697L171.528 29.3047L170.203 27.4976C170.203 27.4976 170.203 27.4976 170.203 27.3771C170.203 27.2567 170.203 27.1362 170.445 27.1362C170.566 27.0157 170.806 27.0157 171.046 27.0157C171.407 27.0157 171.65 27.0157 171.89 26.896C172.13 26.896 172.372 26.896 172.612 26.896C172.854 26.896 172.974 26.896 173.095 26.896ZM199.463 31.7148C199.342 31.1125 199.221 30.6313 198.98 30.2692C198.74 29.9085 198.498 29.5471 198.137 29.1857C197.777 28.9447 197.415 28.8243 196.932 28.5833C196.572 28.4621 196.091 28.4621 195.609 28.4621C195.006 28.4621 194.645 28.4621 194.165 28.5833C193.683 28.7031 193.321 28.944 192.96 29.1857C192.599 29.4259 192.357 29.7873 192.117 30.1495C191.877 30.6313 191.877 31.1125 191.877 31.5951C191.877 32.1975 191.996 32.5589 192.238 32.9203C192.478 33.2817 192.719 33.6431 193.2 33.884C193.561 34.125 194.043 34.3659 194.525 34.6076C195.006 34.8478 195.608 34.9675 196.21 35.2092C196.813 35.4509 197.414 35.6903 198.015 35.932C198.618 36.2935 199.22 36.6549 199.701 37.0178C200.184 37.3777 200.665 37.8596 200.905 38.4634C201.266 38.9438 201.388 39.6666 201.388 40.5107C201.388 41.2327 201.267 41.8351 201.027 42.4382C200.906 42.9208 200.545 43.4012 200.184 43.8854C199.823 44.246 199.462 44.6082 198.98 44.8469C198.497 45.2098 198.016 45.45 197.414 45.5712C196.932 45.8114 196.331 45.9319 195.728 45.9319C195.126 46.0531 194.525 46.0531 193.923 46.0531C193.201 46.0531 192.479 46.0531 191.877 45.9319C191.153 45.8114 190.43 45.6902 189.829 45.5712C189.708 45.5712 189.589 45.5712 189.589 45.45C189.469 45.331 189.469 45.331 189.469 45.2105C189.469 44.9681 189.348 44.7279 189.348 44.246C189.348 43.8854 189.348 43.402 189.348 43.0421C189.348 42.5579 189.348 42.198 189.348 41.8351C189.229 41.4752 189.229 41.2327 189.229 41.1123H190.07C190.07 41.7154 190.312 42.3192 190.552 42.6784C190.792 43.161 191.154 43.5224 191.516 43.8854C191.877 44.124 192.357 44.3665 192.84 44.4877C193.322 44.6082 193.923 44.7279 194.526 44.7279C195.007 44.7279 195.488 44.6082 195.971 44.4877C196.453 44.3665 196.932 44.246 197.294 44.0051C197.655 43.6437 198.017 43.4012 198.258 42.9208C198.498 42.5587 198.619 41.9563 198.619 41.476C198.619 40.8721 198.498 40.5114 198.258 40.1493C198.017 39.7886 197.655 39.5462 197.294 39.3075C196.813 38.9446 196.332 38.7036 195.85 38.5831C195.367 38.343 194.767 38.1005 194.284 37.8603C193.683 37.6201 193.08 37.3777 192.357 37.1375C191.756 36.7768 191.275 36.4147 190.673 36.054C190.19 35.6911 189.83 35.21 189.469 34.6084C189.229 34.0045 189.108 33.2824 189.108 32.4391C189.108 31.4754 189.229 30.6321 189.709 29.9093C190.07 29.1864 190.552 28.5841 191.275 28.2227C191.877 27.862 192.6 27.4999 193.441 27.3794C194.284 27.1384 195.127 27.018 195.971 27.018C196.572 27.018 197.175 27.1384 197.897 27.2589C198.499 27.2589 199.221 27.3794 199.824 27.4999C199.824 27.6203 199.944 27.6203 199.944 27.74C200.064 27.74 200.064 27.8613 200.064 27.8613C200.064 28.1015 200.185 28.4629 200.185 28.8243C200.185 29.1857 200.185 29.5479 200.185 30.029C200.304 30.3904 200.304 30.7518 200.304 31.1132C200.304 31.3542 200.304 31.5959 200.304 31.7156L199.463 31.7148Z" fill="white"/>
<path d="M182.735 9.03542V2.71071H180.576V1.93066H185.832V2.71071H183.662V9.03542H182.735ZM192.786 9.03542L192.607 5.91523C192.554 4.92436 192.491 3.73321 192.501 2.84775H192.47C192.227 3.6805 191.932 4.56596 191.574 5.54629L190.321 8.99325H189.625L188.477 5.60953C188.14 4.60812 187.856 3.69104 187.655 2.84775H187.634C187.613 3.73321 187.561 4.92436 187.497 5.98902L187.308 9.03542H186.433L186.929 1.93066H188.098L189.309 5.36709C189.604 6.24201 189.847 7.02205 190.026 7.75993H190.057C190.236 7.04313 190.489 6.26309 190.805 5.36709L192.069 1.93066H193.239L193.681 9.03542H192.786Z" fill="white"/>
</svg>
